<?xml version="1.0" encoding="utf-8"?>
<!-- Generator: Adobe Illustrator 27.0.0, SVG Export Plug-In . SVG Version: 6.00 Build 0)  -->
<svg version="1.1" id="Layer_1" xmlns="http://www.w3.org/2000/svg" xmlns:xlink="http://www.w3.org/1999/xlink" x="0px" y="0px"
	 viewBox="0 0 141.7 141.7" style="enable-background:new 0 0 141.7 141.7;" xml:space="preserve">
<style type="text/css">
	.st0{fill:#0051D3;}
	.st1{fill:#FDFD7E;}
</style>
<g>
	<path class="st0" d="M0.3,5.7L0.3,5.7c0,14.7,7.5,28.5,19.8,36.5l46.7,30.4V49L0.3,5.7z"/>
	<polygon class="st0" points="0.3,38.2 0.3,61.8 0.3,70.6 0.3,94.2 23.9,109.6 66.8,137.5 66.8,113.8 23.9,85.9 23.9,77.2 
		66.8,105.1 66.8,81.4 23.9,53.5 	"/>
</g>
<g>
	<polygon class="st1" points="75.5,48 75.5,71.6 118.4,43.7 118.4,52.5 75.5,80.4 75.5,104 118.4,76.1 142,60.8 142,37.1 142,28.3 
		142,16.5 142,4.7 	"/>
	<path class="st1" d="M75.5,136.4L142,93.2V69.5L95.3,99.9C82.9,107.9,75.5,121.7,75.5,136.4L75.5,136.4z"/>
</g>
<g>
	<g>
		<path class="st0" d="M-305.5,5.7L-305.5,5.7c0,14.7,7.5,28.5,19.8,36.5l46.7,30.4V49L-305.5,5.7z"/>
		<polygon class="st0" points="-305.5,38.2 -305.5,61.8 -305.5,70.6 -305.5,94.2 -281.9,109.6 -238.9,137.5 -238.9,113.8 
			-281.9,85.9 -281.9,77.2 -238.9,105.1 -238.9,81.4 -281.9,53.5 		"/>
	</g>
	<polygon class="st1" points="-230.3,48 -230.3,71.6 -187.4,43.7 -187.4,52.5 -230.3,80.4 -230.3,104 -187.4,76.1 -163.8,60.8 
		-163.8,37.1 -163.8,28.3 -163.8,16.5 -163.8,4.7 	"/>
	<path class="st1" d="M-163.8,69.5l-66.5,43.3v23.6l46.7-30.4C-171.2,98-163.8,84.3-163.8,69.5L-163.8,69.5z"/>
</g>
<g>
	<g>
		<path class="st0" d="M-305.5,138.5L-305.5,138.5c0,14.8,7.5,28.5,19.8,36.5l46.7,30.4v-23.6L-305.5,138.5z"/>
		<polygon class="st0" points="-305.5,170.9 -305.5,194.6 -305.5,203.4 -305.5,227 -281.9,242.4 -238.9,270.2 -238.9,246.6 
			-281.9,218.7 -281.9,209.9 -238.9,237.8 -238.9,214.2 -281.9,186.3 		"/>
	</g>
	<polygon class="st1" points="-230.3,180.7 -230.3,204.4 -187.4,176.5 -187.4,185.3 -230.3,213.2 -230.3,236.8 -187.4,208.9 
		-163.8,193.5 -163.8,169.9 -163.8,161.1 -163.8,149.3 -163.8,137.5 	"/>
	<path class="st1" d="M-165.8,215.6c-9.8-1.1-19.9,1.1-28.5,6.6l-7.7,5l-28.3,18.4v11.7v11.9l39-25.4l38.4-24.7
		C-157,217.3-161.4,216.1-165.8,215.6z"/>
</g>
</svg>
