<?xml version="1.0" encoding="utf-8"?>
<!-- Generator: Adobe Illustrator 27.0.0, SVG Export Plug-In . SVG Version: 6.00 Build 0)  -->
<svg version="1.1" id="Layer_1" xmlns="http://www.w3.org/2000/svg" xmlns:xlink="http://www.w3.org/1999/xlink" x="0px" y="0px"
	 viewBox="0 0 141.7 141.7" style="enable-background:new 0 0 141.7 141.7;" xml:space="preserve">
<style type="text/css">
	.st0{fill:#0051D3;}
	.st1{fill:#FDFD7E;}
</style>
<g>
	<path class="st0" d="M-309.8-121.3L-309.8-121.3c0,14.7,7.5,28.5,19.8,36.5l46.7,30.4V-78L-309.8-121.3z"/>
	<polygon class="st0" points="-309.8,-88.8 -309.8,-65.2 -309.8,-56.4 -309.8,-32.8 -286.1,-17.4 -243.2,10.5 -243.2,-13.2 
		-286.1,-41.1 -286.1,-49.8 -243.2,-21.9 -243.2,-45.6 -286.1,-73.5 	"/>
</g>
<g>
	<polygon class="st1" points="-234.5,-79 -234.5,-55.4 -191.6,-83.3 -191.6,-74.5 -234.5,-46.6 -234.5,-23 -191.6,-50.9 -168,-66.2 
		-168,-89.9 -168,-98.7 -168,-110.5 -168,-122.3 	"/>
	<path class="st1" d="M-234.5,9.4l66.5-43.2v-23.7l-46.7,30.4C-227.1-19.1-234.5-5.3-234.5,9.4L-234.5,9.4z"/>
</g>
<g>
	<g>
		<path class="st0" d="M-108.4,229.4L-108.4,229.4c0,14.7,7.5,28.6,19.8,36.6l46.7,30.4v-23.6L-108.4,229.4z"/>
		<polygon class="st0" points="-108.4,262 -108.4,285.5 -108.4,294.3 -108.4,317.9 -84.8,333.3 -41.8,361.2 -41.8,337.6 
			-84.8,309.7 -84.8,300.9 -41.8,328.8 -41.8,305.2 -84.8,277.2 		"/>
	</g>
	<polygon class="st1" points="-33.2,271.8 -33.2,295.3 9.7,267.5 9.7,276.2 -33.2,304.2 -33.2,327.8 9.7,299.8 33.3,284.5 
		33.3,260.8 33.3,252 33.3,240.2 33.3,228.4 	"/>
	<path class="st1" d="M33.3,293.2l-66.5,43.3v23.6l46.7-30.4C25.9,321.8,33.3,308.1,33.3,293.2L33.3,293.2z"/>
</g>
<g>
	<g>
		<path class="st0" d="M0,10.3L0,10.3c0,13.7,7,26.5,18.4,33.9l43.4,28.2V50.5L0,10.3z"/>
		<polygon class="st0" points="0,40.4 0,62.4 0,70.6 0,92.5 22,106.8 61.9,132.6 61.9,110.7 22,84.8 22,76.6 61.9,102.5 61.9,80.6 
			22,54.7 		"/>
	</g>
	<polygon class="st1" points="69.9,49.5 69.9,71.5 109.7,45.6 109.7,53.8 69.9,79.7 69.9,101.6 109.7,75.7 131.6,61.4 131.6,39.5 
		131.6,31.3 131.6,20.4 131.6,9.4 	"/>
	<path class="st1" d="M129.8,81.9c-9.1-1-18.5,1-26.5,6.1l-7.2,4.6l-26.3,17.1v10.9v11l36.2-23.6l35.7-22.9
		C137.9,83.5,133.9,82.4,129.8,81.9z"/>
</g>
</svg>
