<svg width="18" height="20" viewBox="0 0 18 20" fill="none" xmlns="http://www.w3.org/2000/svg">
<path d="M4 9.99951H6V11.9995H4V9.99951ZM18 3.99951V17.9995C18 18.5299 17.7893 19.0387 17.4142 19.4137C17.0391 19.7888 16.5304 19.9995 16 19.9995H2C0.89 19.9995 0 19.0995 0 17.9995V3.99951C0 3.46908 0.210714 2.96037 0.585786 2.5853C0.960859 2.21023 1.46957 1.99951 2 1.99951H3V-0.000488281H5V1.99951H13V-0.000488281H15V1.99951H16C16.5304 1.99951 17.0391 2.21023 17.4142 2.5853C17.7893 2.96037 18 3.46908 18 3.99951ZM2 5.99951H16V3.99951H2V5.99951ZM16 17.9995V7.99951H2V17.9995H16ZM12 11.9995V9.99951H14V11.9995H12ZM8 11.9995V9.99951H10V11.9995H8ZM4 13.9995H6V15.9995H4V13.9995ZM12 15.9995V13.9995H14V15.9995H12ZM8 15.9995V13.9995H10V15.9995H8Z" fill="white"/>
</svg>
