<svg width="44" height="45" viewBox="0 0 44 45" fill="none" xmlns="http://www.w3.org/2000/svg">
<path d="M43.4666 35.7768C43.5953 36.5808 43.3478 37.3645 42.7934 37.9345L41.3974 39.3696C40.942 39.8377 40.338 40.0922 39.7044 40.0922C39.5658 40.0922 39.4371 40.082 39.2985 40.0617C38.5262 39.9293 37.8728 39.4408 37.5263 38.7182L36.2986 36.1635C36.0907 36.2755 35.8828 36.3671 35.6749 36.4485C35.259 36.591 34.8729 36.6724 34.5264 36.6724C33.972 36.6724 33.5066 36.4892 33.1601 36.133C33.1205 36.0923 33.0908 36.0516 33.0512 36.0007C32.0315 36.3467 30.982 36.5198 29.9424 36.5198C27.6158 36.5198 25.3287 35.6852 23.4971 34.1076L22.012 35.5529C21.3289 36.2246 20.4577 36.5503 19.5864 36.5503C18.7152 36.5503 17.8439 36.2246 17.1707 35.5529L3.71576 22.3828C0.705983 19.4414 -0.284082 15.0954 1.1416 11.0345C2.50788 7.14653 5.79489 4.55119 9.73532 4.27638C10.0224 4.25603 10.3095 4.24585 10.6066 4.24585C13.3985 4.24585 16.0321 5.19239 18.2201 6.98369C19.0221 7.65542 20.1507 7.65542 20.9527 6.98369C23.1407 5.19239 25.7743 4.24585 28.5761 4.24585C28.893 4.24585 29.1999 4.25603 29.5167 4.27638C32.9225 4.54101 35.7937 6.48497 37.4075 9.59939C39.0015 12.6629 39.0411 16.3676 37.5758 19.4108C39.8826 22.1588 40.6153 25.9348 39.5163 29.3749C39.5559 29.4156 39.6054 29.4258 39.645 29.4665C40.3281 30.179 40.2885 31.3901 39.6648 32.6827L42.1598 33.9549C42.8627 34.3112 43.3379 34.9829 43.4666 35.7768ZM41.6746 36.7844C41.8627 36.591 41.9518 36.3162 41.9023 36.0414C41.8627 35.7666 41.6944 35.5427 41.4469 35.4104L38.7935 34.0567C38.6153 34.2705 38.4371 34.4842 38.2391 34.6878C38.0411 34.8913 37.8332 35.0847 37.6253 35.2577L38.9421 37.9956C39.0609 38.2398 39.2886 38.4128 39.5559 38.4536C39.8232 38.5044 40.0905 38.4128 40.2786 38.2195L41.6746 36.7844ZM37.1204 33.5377C38.5064 32.1026 38.7044 30.81 38.5262 30.6166C38.4569 30.5556 38.15 30.4945 37.5956 30.7082C37.1897 30.8711 36.7342 30.6573 36.5758 30.24C36.4273 29.8126 36.6352 29.3444 37.0411 29.1917C37.3679 29.0594 37.6649 28.9983 37.9619 28.9678C39.0015 25.8229 38.249 22.3624 35.9422 19.991C32.6354 16.5916 27.2495 16.5916 23.9427 19.991C22.3388 21.6398 21.4576 23.828 21.4576 26.1587C21.4576 28.4895 22.3388 30.6879 23.9427 32.3367C26.2396 34.6979 29.6157 35.4714 32.6651 34.4028C32.6849 34.1483 32.7443 33.8633 32.8532 33.5478C32.9423 33.2934 33.1403 33.1 33.3977 33.0288C33.8234 32.9168 34.2789 33.1713 34.3878 33.5987C34.4472 33.8328 34.4076 34.0771 34.2987 34.2603C34.1799 34.6674 34.2195 34.9218 34.2789 34.9829C34.3482 35.044 34.6452 35.0949 35.1402 34.9117C35.7739 34.6776 36.4966 34.1789 37.1204 33.5377ZM36.3877 18.2098C37.3976 15.7264 37.2788 12.8054 36.0115 10.3627C34.6551 7.74702 32.2493 6.12875 29.388 5.90484C29.1207 5.88448 28.8534 5.8743 28.5761 5.8743C26.1406 5.8743 23.8437 6.69871 21.9427 8.25592C20.5567 9.40601 18.6161 9.40601 17.2301 8.25592C15.3291 6.69871 13.0421 5.8743 10.6066 5.8743C10.3491 5.8743 10.1016 5.88448 9.85412 5.89466C6.49782 6.13893 3.79497 8.2661 2.6366 11.5841C1.42873 15.0242 2.26037 18.7187 4.80482 21.2123L18.2597 34.3722C19.0023 35.105 20.1705 35.105 20.9131 34.3722L22.3685 32.9575C21.3586 31.7871 20.6458 30.4131 20.2497 28.9373L8.81456 18.0165C8.49774 17.7111 8.47795 17.2022 8.77496 16.8664C9.07198 16.5407 9.57692 16.5203 9.89374 16.8257L19.8834 26.3623C19.8834 26.3012 19.8834 26.23 19.8834 26.1587C19.8834 23.4005 20.9329 20.795 22.8338 18.8409C26.5465 15.0344 32.4473 14.8206 36.3976 18.2098H36.3877Z" fill="#0051D3"/>
<path d="M41.902 36.0413C41.9516 36.3161 41.8624 36.5909 41.6743 36.7843L40.2784 38.2194C40.0902 38.4128 39.8229 38.5044 39.5556 38.4535C39.2883 38.4128 39.0606 38.2397 38.9418 37.9955L37.625 35.2576C37.8329 35.0846 38.0408 34.8912 38.2388 34.6877C38.4368 34.4841 38.6151 34.2704 38.7933 34.0566L41.4466 35.4103C41.6941 35.5426 41.8624 35.7665 41.902 36.0413Z" fill="#0051D3"/>
<path d="M38.5266 30.6166C38.7048 30.81 38.5068 32.1026 37.1207 33.5377C36.497 34.1789 35.7743 34.6776 35.1406 34.9117C34.6456 35.0949 34.3486 35.044 34.2793 34.9829C34.2199 34.9218 34.1803 34.6674 34.2991 34.2603C34.408 34.0771 34.4476 33.8328 34.3882 33.5987C34.2793 33.1713 33.8238 32.9168 33.3981 33.0288C33.1407 33.1 32.9427 33.2934 32.8536 33.5478C32.7447 33.8633 32.6853 34.1483 32.6655 34.4028C29.6161 35.4714 26.24 34.6979 23.9431 32.3367C22.3392 30.6879 21.458 28.4894 21.458 26.1587C21.458 23.828 22.3392 21.6398 23.9431 19.991C27.2498 16.5916 32.6358 16.5916 35.9426 19.991C38.2494 22.3624 39.0019 25.8229 37.9623 28.9678C37.6653 28.9983 37.3683 29.0594 37.0415 29.1917C36.6356 29.3444 36.4277 29.8126 36.5762 30.24C36.7346 30.6573 37.19 30.8711 37.596 30.7082C38.1504 30.4945 38.4573 30.5555 38.5266 30.6166ZM36.3683 26.1689C36.3683 24.4081 35.705 22.7593 34.4872 21.5075C33.2694 20.2556 31.6655 19.5838 29.9527 19.5838C28.2399 19.5838 26.636 20.2658 25.4182 21.5075C24.2104 22.7593 23.5371 24.4081 23.5371 26.1689C23.5371 27.9297 24.2104 29.5887 25.4182 30.8303C26.6261 32.072 28.2399 32.7641 29.9527 32.7641C31.6655 32.7641 33.2793 32.0822 34.4872 30.8303C35.705 29.5887 36.3683 27.9297 36.3683 26.1689Z" fill="white"/>
<path d="M36.0121 10.3627C37.2794 12.8054 37.3982 15.7264 36.3884 18.2098C32.438 14.8206 26.5373 15.0343 22.8245 18.8408C20.9236 20.795 19.8742 23.4005 19.8742 26.1587C19.8742 26.2299 19.8742 26.3012 19.8742 26.3622L9.88447 16.8256C9.56765 16.5203 9.06272 16.5406 8.7657 16.8663C8.46868 17.2022 8.48849 17.7111 8.80531 18.0164L20.2405 28.9372C20.6365 30.413 21.3494 31.787 22.3592 32.9575L20.9038 34.3722C20.1613 35.105 18.993 35.105 18.2505 34.3722L4.79557 21.2123C2.25112 18.7187 1.41947 15.0241 2.62734 11.584C3.78571 8.26606 6.48858 6.13889 9.84487 5.89462C10.0924 5.88445 10.3399 5.87427 10.5973 5.87427C13.0329 5.87427 15.3199 6.69867 17.2208 8.25588C18.6069 9.40598 20.5474 9.40598 21.9335 8.25588C23.8344 6.69867 26.1313 5.87427 28.5669 5.87427C28.8441 5.87427 29.1114 5.88445 29.3787 5.9048C32.24 6.12871 34.6458 7.74699 36.0022 10.3627H36.0121Z" fill="#FFDA00"/>
<path d="M34.4862 21.5074C35.704 22.7592 36.3673 24.408 36.3673 26.1688C36.3673 27.9296 35.704 29.5885 34.4862 30.8302C33.2783 32.0821 31.6645 32.764 29.9517 32.764C28.2389 32.764 26.635 32.0821 25.4172 30.8302C24.1995 29.5784 23.5361 27.9296 23.5361 26.1688C23.5361 24.408 24.2094 22.7592 25.4172 21.5074C26.635 20.2657 28.2389 19.5837 29.9517 19.5837C31.6645 19.5837 33.2783 20.2657 34.4862 21.5074ZM34.7832 26.1688C34.7832 24.8457 34.2783 23.5938 33.3674 22.6574C32.4566 21.7211 31.2487 21.2122 29.9517 21.2122C28.6547 21.2122 27.4469 21.7211 26.536 22.6574C25.6252 23.604 25.1202 24.8457 25.1202 26.1688C25.1202 27.4919 25.6252 28.7438 26.536 29.6801C27.4469 30.6165 28.6646 31.1356 29.9517 31.1356C31.2388 31.1356 32.4566 30.6165 33.3674 29.6801C34.2783 28.7438 34.7832 27.5021 34.7832 26.1688Z" fill="#0051D3"/>
<path d="M33.3683 22.6577C34.2791 23.594 34.7841 24.8459 34.7841 26.169C34.7841 27.4921 34.2791 28.744 33.3683 29.6804C32.4574 30.6167 31.2496 31.1358 29.9526 31.1358C28.6556 31.1358 27.4477 30.6167 26.5369 29.6804C25.626 28.744 25.1211 27.5023 25.1211 26.169C25.1211 24.8357 25.626 23.6042 26.5369 22.6577C27.4477 21.7213 28.6655 21.2124 29.9526 21.2124C31.2397 21.2124 32.4574 21.7213 33.3683 22.6577Z" fill="#FFDA00"/>
</svg>
