<svg width="43" height="43" viewBox="0 0 43 43" fill="none" xmlns="http://www.w3.org/2000/svg">
<path d="M42.9666 34.8019C43.0953 35.5841 42.8478 36.3464 42.2934 36.9008L40.8974 38.2968C40.442 38.7522 39.838 38.9998 39.2044 38.9998C39.0658 38.9998 38.9371 38.9899 38.7985 38.9701C38.0262 38.8414 37.3728 38.3661 37.0263 37.6632L35.7986 35.1781C35.5907 35.287 35.3828 35.3761 35.1749 35.4553C34.759 35.594 34.3729 35.6732 34.0264 35.6732C33.472 35.6732 33.0066 35.495 32.6601 35.1484C32.6205 35.1088 32.5908 35.0692 32.5512 35.0197C31.5315 35.3563 30.482 35.5247 29.4424 35.5247C27.1158 35.5247 24.8287 34.7128 22.9971 33.1782L21.512 34.5841C20.8289 35.2375 19.9577 35.5544 19.0864 35.5544C18.2152 35.5544 17.3439 35.2375 16.6707 34.5841L3.21576 21.7727C0.205983 18.9115 -0.784082 14.6839 0.641603 10.7336C2.00788 6.95155 5.29489 4.4269 9.23532 4.15959C9.52244 4.13978 9.80955 4.12988 10.1066 4.12988C12.8985 4.12988 15.5321 5.05064 17.7201 6.79314C18.5221 7.44658 19.6507 7.44658 20.4527 6.79314C22.6407 5.05064 25.2743 4.12988 28.0761 4.12988C28.393 4.12988 28.6999 4.13978 29.0167 4.15959C32.4225 4.417 35.2937 6.30801 36.9075 9.33759C38.5015 12.3177 38.5411 15.9215 37.0758 18.8818C39.3826 21.5549 40.1153 25.228 39.0163 28.5744C39.0559 28.614 39.1054 28.6239 39.145 28.6635C39.8281 29.3566 39.7885 30.5348 39.1648 31.7921L41.6598 33.0297C42.3627 33.3762 42.8379 34.0297 42.9666 34.8019ZM41.1746 35.7821C41.3627 35.594 41.4518 35.3266 41.4023 35.0593C41.3627 34.792 41.1944 34.5742 40.9469 34.4455L38.2935 33.1287C38.1153 33.3366 37.9371 33.5445 37.7391 33.7425C37.5411 33.9406 37.3332 34.1287 37.1253 34.297L38.4421 36.9602C38.5609 37.1979 38.7886 37.3662 39.0559 37.4058C39.3232 37.4553 39.5905 37.3662 39.7786 37.178L41.1746 35.7821ZM36.6204 32.6238C38.0064 31.2278 38.2044 29.9704 38.0262 29.7823C37.9569 29.7229 37.65 29.6635 37.0956 29.8714C36.6897 30.0298 36.2342 29.8219 36.0758 29.416C35.9273 29.0002 36.1352 28.5447 36.5411 28.3962C36.8679 28.2675 37.1649 28.2081 37.4619 28.1784C38.5015 25.1191 37.749 21.7529 35.4422 19.4461C32.1354 16.1393 26.7495 16.1393 23.4427 19.4461C21.8388 21.05 20.9576 23.1786 20.9576 25.4459C20.9576 27.7131 21.8388 29.8516 23.4427 31.4555C25.7396 33.7524 29.1157 34.5049 32.1651 33.4653C32.1849 33.2178 32.2443 32.9406 32.3532 32.6337C32.4423 32.3862 32.6403 32.1981 32.8977 32.1288C33.3234 32.0198 33.7789 32.2674 33.8878 32.6832C33.9472 32.9109 33.9076 33.1485 33.7987 33.3267C33.6799 33.7227 33.7195 33.9703 33.7789 34.0297C33.8482 34.0891 34.1452 34.1386 34.6402 33.9604C35.2739 33.7326 35.9966 33.2475 36.6204 32.6238ZM35.8877 17.7135C36.8976 15.2977 36.7788 12.4563 35.5115 10.0801C34.1551 7.53569 31.7493 5.96149 28.888 5.74368C28.6207 5.72388 28.3534 5.71398 28.0761 5.71398C25.6406 5.71398 23.3437 6.51593 21.4427 8.03072C20.0567 9.14948 18.1161 9.14948 16.7301 8.03072C14.8291 6.51593 12.5421 5.71398 10.1066 5.71398C9.84915 5.71398 9.60164 5.72388 9.35413 5.73378C5.99782 5.97139 3.29497 8.04062 2.1366 11.2682C0.92873 14.6146 1.76037 18.2085 4.30482 20.6342L17.7597 33.4356C18.5023 34.1485 19.6705 34.1485 20.4131 33.4356L21.8685 32.0594C20.8586 30.9209 20.1458 29.5843 19.7497 28.1487L8.31456 17.5254C7.99774 17.2284 7.97795 16.7333 8.27496 16.4066C8.57198 16.0898 9.07692 16.07 9.39373 16.367L19.3834 25.6439C19.3834 25.5845 19.3834 25.5152 19.3834 25.4459C19.3834 22.7628 20.4329 20.2282 22.3338 18.3273C26.0465 14.6245 31.9473 14.4166 35.8976 17.7135H35.8877Z" fill="#0051D3"/>
<path d="M41.402 35.0595C41.4516 35.3268 41.3624 35.5942 41.1743 35.7823L39.7784 37.1782C39.5902 37.3664 39.3229 37.4555 39.0556 37.406C38.7883 37.3664 38.5606 37.1981 38.4418 36.9604L37.125 34.2972C37.3329 34.1289 37.5408 33.9408 37.7388 33.7427C37.9368 33.5447 38.1151 33.3368 38.2933 33.1289L40.9466 34.4457C41.1941 34.5744 41.3624 34.7922 41.402 35.0595Z" fill="#0051D3"/>
<path d="M38.0266 29.7826C38.2048 29.9707 38.0068 31.2281 36.6207 32.6241C35.997 33.2478 35.2743 33.733 34.6406 33.9607C34.1456 34.1389 33.8486 34.0894 33.7793 34.03C33.7199 33.9706 33.6803 33.7231 33.7991 33.327C33.908 33.1488 33.9476 32.9112 33.8882 32.6835C33.7793 32.2677 33.3238 32.0202 32.8981 32.1291C32.6407 32.1984 32.4427 32.3865 32.3536 32.634C32.2447 32.9409 32.1853 33.2181 32.1655 33.4656C29.1161 34.5052 25.74 33.7528 23.4431 31.4558C21.8392 29.8519 20.958 27.7134 20.958 25.4462C20.958 23.1789 21.8392 21.0503 23.4431 19.4464C26.7498 16.1396 32.1358 16.1396 35.4426 19.4464C37.7494 21.7532 38.5019 25.1194 37.4623 28.1787C37.1653 28.2084 36.8683 28.2678 36.5415 28.3965C36.1356 28.545 35.9277 29.0005 36.0762 29.4163C36.2346 29.8222 36.69 30.0301 37.096 29.8717C37.6504 29.6638 37.9573 29.7232 38.0266 29.7826ZM35.8683 25.4561C35.8683 23.7433 35.205 22.1394 33.9872 20.9216C32.7694 19.7038 31.1655 19.0504 29.4527 19.0504C27.7399 19.0504 26.136 19.7137 24.9182 20.9216C23.7104 22.1394 23.0371 23.7433 23.0371 25.4561C23.0371 27.1689 23.7104 28.7827 24.9182 29.9905C26.1261 31.1984 27.7399 31.8716 29.4527 31.8716C31.1655 31.8716 32.7793 31.2083 33.9872 29.9905C35.205 28.7827 35.8683 27.1689 35.8683 25.4561Z" fill="white"/>
<path d="M35.5121 10.0805C36.7794 12.4567 36.8982 15.2981 35.8884 17.7139C31.938 14.417 26.0373 14.6249 22.3245 18.3277C20.4236 20.2286 19.3742 22.7632 19.3742 25.4462C19.3742 25.5155 19.3742 25.5848 19.3742 25.6442L9.38447 16.3674C9.06765 16.0704 8.56272 16.0902 8.2657 16.407C7.96868 16.7337 7.98849 17.2287 8.30531 17.5258L19.7405 28.1491C20.1365 29.5847 20.8494 30.9213 21.8592 32.0598L20.4038 33.436C19.6613 34.1488 18.493 34.1488 17.7505 33.436L4.29557 20.6345C1.75112 18.2089 0.919465 14.615 2.12734 11.2686C3.28571 8.04099 5.98857 5.97177 9.34487 5.73416C9.59239 5.72426 9.8399 5.71436 10.0973 5.71436C12.5329 5.71436 14.8199 6.5163 16.7208 8.03109C18.1069 9.14986 20.0474 9.14986 21.4335 8.03109C23.3344 6.5163 25.6313 5.71436 28.0669 5.71436C28.3441 5.71436 28.6114 5.72426 28.8787 5.74406C31.74 5.96187 34.1458 7.53606 35.5022 10.0805H35.5121Z" fill="#FFDA00"/>
<path d="M33.9862 20.9215C35.204 22.1393 35.8673 23.7432 35.8673 25.456C35.8673 27.1688 35.204 28.7826 33.9862 29.9904C32.7783 31.2082 31.1645 31.8716 29.4517 31.8716C27.7389 31.8716 26.135 31.2082 24.9172 29.9904C23.6995 28.7727 23.0361 27.1688 23.0361 25.456C23.0361 23.7432 23.7094 22.1393 24.9172 20.9215C26.135 19.7136 27.7389 19.0503 29.4517 19.0503C31.1645 19.0503 32.7783 19.7136 33.9862 20.9215ZM34.2832 25.456C34.2832 24.1689 33.7783 22.9511 32.8674 22.0403C31.9566 21.1294 30.7487 20.6344 29.4517 20.6344C28.1547 20.6344 26.9469 21.1294 26.036 22.0403C25.1252 22.961 24.6202 24.1689 24.6202 25.456C24.6202 26.743 25.1252 27.9608 26.036 28.8717C26.9469 29.7825 28.1646 30.2875 29.4517 30.2875C30.7388 30.2875 31.9566 29.7825 32.8674 28.8717C33.7783 27.9608 34.2832 26.7529 34.2832 25.456Z" fill="#0051D3"/>
<path d="M32.8683 22.0407C33.7791 22.9515 34.2841 24.1693 34.2841 25.4564C34.2841 26.7434 33.7791 27.9612 32.8683 28.8721C31.9574 29.7829 30.7496 30.2878 29.4526 30.2878C28.1556 30.2878 26.9477 29.7829 26.0369 28.8721C25.126 27.9612 24.6211 26.7533 24.6211 25.4564C24.6211 24.1594 25.126 22.9614 26.0369 22.0407C26.9477 21.1298 28.1655 20.6348 29.4526 20.6348C30.7397 20.6348 31.9574 21.1298 32.8683 22.0407Z" fill="#FFDA00"/>
</svg>
