<svg width="22" height="20" viewBox="0 0 22 20" fill="none" xmlns="http://www.w3.org/2000/svg">
<path id="Icon" fill-rule="evenodd" clip-rule="evenodd" d="M2.77641 3.24175C3.67654 2.34189 4.89722 1.83638 6.17001 1.83638C7.44279 1.83638 8.66347 2.34189 9.56361 3.24175L10.97 4.64695L12.3764 3.24175C12.8192 2.7833 13.3488 2.41763 13.9345 2.16606C14.5201 1.9145 15.1499 1.78209 15.7873 1.77655C16.4246 1.77101 17.0567 1.89246 17.6466 2.13381C18.2365 2.37515 18.7724 2.73157 19.2231 3.18225C19.6738 3.63294 20.0302 4.16887 20.2715 4.75877C20.5129 5.34867 20.6343 5.98074 20.6288 6.61808C20.6233 7.25542 20.4909 7.88527 20.2393 8.47089C19.9877 9.05651 19.6221 9.58617 19.1636 10.029L10.97 18.2237L2.77641 10.029C1.87655 9.12882 1.37103 7.90814 1.37103 6.63535C1.37103 5.36256 1.87655 4.14188 2.77641 3.24175V3.24175Z" stroke="#555555" stroke-width="2" stroke-linejoin="round"/>
</svg>
