<svg width="24" height="24" viewBox="0 0 24 22" fill="none" xmlns="http://www.w3.org/2000/svg">
<path fill-rule="evenodd" clip-rule="evenodd" d="M3.0325 3.19281C4.01406 2.15329 5.34516 1.56932 6.73308 1.56932C8.121 1.56932 9.4521 2.15329 10.4337 3.19281L11.9673 4.81609L13.5009 3.19281C13.9837 2.66321 14.5613 2.24078 15.1999 1.95018C15.8385 1.65957 16.5253 1.50661 17.2203 1.50021C17.9153 1.49381 18.6045 1.63411 19.2478 1.91291C19.8911 2.19172 20.4755 2.60345 20.9669 3.12408C21.4584 3.64471 21.847 4.26382 22.1102 4.94527C22.3734 5.62672 22.5058 6.35688 22.4998 7.09314C22.4938 7.82939 22.3494 8.557 22.0751 9.23351C21.8007 9.91001 21.402 10.5219 20.9021 11.0334L11.9673 20.5L3.0325 11.0334C2.05124 9.99354 1.5 8.58342 1.5 7.11309C1.5 5.64277 2.05124 4.23264 3.0325 3.19281Z" stroke="#0051d3" stroke-width="2" stroke-linejoin="round"/>
</svg>
