<?xml version="1.0" encoding="utf-8"?>
<!-- Generator: Adobe Illustrator 27.0.0, SVG Export Plug-In . SVG Version: 6.00 Build 0)  -->
<svg version="1.1" id="Layer_1" xmlns="http://www.w3.org/2000/svg" xmlns:xlink="http://www.w3.org/1999/xlink" x="0px" y="0px"
	 viewBox="0 0 24 22" style="enable-background:new 0 0 24 22;" xml:space="preserve">
<style type="text/css">
	.st0{fill:none;stroke:#0051D3;stroke-width:2;stroke-linejoin:round;}
</style>
<path class="st0" d="M3,3.2c1-1,2.3-1.6,3.7-1.6s2.7,0.6,3.7,1.6L12,4.8l1.5-1.6c0.5-0.5,1.1-1,1.7-1.2c0.6-0.3,1.3-0.4,2-0.4
	c0.7,0,1.4,0.1,2,0.4c0.6,0.3,1.2,0.7,1.7,1.2c0.5,0.5,0.9,1.1,1.1,1.8c0.3,0.7,0.4,1.4,0.4,2.1c0,0.7-0.2,1.5-0.4,2.1
	c-0.3,0.7-0.7,1.3-1.2,1.8L12,20.5L3,11c-1-1-1.5-2.4-1.5-3.9C1.5,5.6,2.1,4.2,3,3.2z"/>
</svg>
