<svg width="21" height="24" viewBox="0 0 21 24" fill="none" xmlns="http://www.w3.org/2000/svg">
<g id="_Layer_" clip-path="url(#clip0_239_1744)">
<path id="Vector" d="M18.8334 0H2.83337C1.73337 0 0.833374 0.9 0.833374 2V22C0.833374 23.1 1.73337 24 2.83337 24H18.8334C19.9334 24 20.8334 23.1 20.8334 22V2C20.8334 0.9 19.9334 0 18.8334 0ZM18.8334 22H2.83337V2H18.8334V22Z" fill="#555555"/>
<path id="Vector_2" d="M15.8334 3.63989H5.83337C5.28109 3.63989 4.83337 4.08761 4.83337 4.63989V5.63989C4.83337 6.19218 5.28109 6.63989 5.83337 6.63989H15.8334C16.3857 6.63989 16.8334 6.19218 16.8334 5.63989V4.63989C16.8334 4.08761 16.3857 3.63989 15.8334 3.63989Z" fill="#555555"/>
<path id="Vector_3" d="M15.7334 16.6799H9.7334C9.1834 16.6799 8.7334 16.9199 8.7334 17.2299V19.1399C8.7334 19.4399 9.1834 19.6899 9.7334 19.6899H15.7334C16.2834 19.6899 16.7334 19.4499 16.7334 19.1399V17.2299C16.7334 16.9299 16.2834 16.6799 15.7334 16.6799Z" fill="#555555"/>
<path id="Vector_4" d="M6.83337 7.77002H5.83337C5.28109 7.77002 4.83337 8.21774 4.83337 8.77002V9.77002C4.83337 10.3223 5.28109 10.77 5.83337 10.77H6.83337C7.38566 10.77 7.83337 10.3223 7.83337 9.77002V8.77002C7.83337 8.21774 7.38566 7.77002 6.83337 7.77002Z" fill="#555555"/>
<path id="Vector_5" d="M11.2334 7.77002H10.2334C9.68111 7.77002 9.2334 8.21774 9.2334 8.77002V9.77002C9.2334 10.3223 9.68111 10.77 10.2334 10.77H11.2334C11.7857 10.77 12.2334 10.3223 12.2334 9.77002V8.77002C12.2334 8.21774 11.7857 7.77002 11.2334 7.77002Z" fill="#555555"/>
<path id="Vector_6" d="M15.7334 7.77002H14.7334C14.1811 7.77002 13.7334 8.21774 13.7334 8.77002V9.77002C13.7334 10.3223 14.1811 10.77 14.7334 10.77H15.7334C16.2857 10.77 16.7334 10.3223 16.7334 9.77002V8.77002C16.7334 8.21774 16.2857 7.77002 15.7334 7.77002Z" fill="#555555"/>
<path id="Vector_7" d="M6.83337 12.3999H5.83337C5.28109 12.3999 4.83337 12.8476 4.83337 13.3999V14.3999C4.83337 14.9522 5.28109 15.3999 5.83337 15.3999H6.83337C7.38566 15.3999 7.83337 14.9522 7.83337 14.3999V13.3999C7.83337 12.8476 7.38566 12.3999 6.83337 12.3999Z" fill="#555555"/>
<path id="Vector_8" d="M6.83337 16.6799H5.83337C5.28109 16.6799 4.83337 17.1276 4.83337 17.6799V18.6799C4.83337 19.2322 5.28109 19.6799 5.83337 19.6799H6.83337C7.38566 19.6799 7.83337 19.2322 7.83337 18.6799V17.6799C7.83337 17.1276 7.38566 16.6799 6.83337 16.6799Z" fill="#555555"/>
<path id="Vector_9" d="M11.2334 12.3999H10.2334C9.68111 12.3999 9.2334 12.8476 9.2334 13.3999V14.3999C9.2334 14.9522 9.68111 15.3999 10.2334 15.3999H11.2334C11.7857 15.3999 12.2334 14.9522 12.2334 14.3999V13.3999C12.2334 12.8476 11.7857 12.3999 11.2334 12.3999Z" fill="#555555"/>
<path id="Vector_10" d="M15.7334 12.3999H14.7334C14.1811 12.3999 13.7334 12.8476 13.7334 13.3999V14.3999C13.7334 14.9522 14.1811 15.3999 14.7334 15.3999H15.7334C16.2857 15.3999 16.7334 14.9522 16.7334 14.3999V13.3999C16.7334 12.8476 16.2857 12.3999 15.7334 12.3999Z" fill="#555555"/>
</g>
<defs>
<clipPath id="clip0_239_1744">
<rect width="20" height="24" fill="white" transform="translate(0.833374)"/>
</clipPath>
</defs>
</svg>
