<svg width="16" height="20" viewBox="0 0 16 20" fill="none" xmlns="http://www.w3.org/2000/svg">
<path d="M14.4 0.5H1.6C0.72 0.5 0 1.2125 0 2.08333V17.9167C0 18.7875 0.72 19.5 1.6 19.5H14.4C15.28 19.5 16 18.7875 16 17.9167V2.08333C16 1.2125 15.28 0.5 14.4 0.5ZM14.4 17.9167H1.6V2.08333H14.4V17.9167Z" fill="#555555"/>
<path d="M12.0002 3.38184H4.0002C3.55837 3.38184 3.2002 3.73628 3.2002 4.1735V4.96517C3.2002 5.40239 3.55837 5.75684 4.0002 5.75684H12.0002C12.442 5.75684 12.8002 5.40239 12.8002 4.96517V4.1735C12.8002 3.73628 12.442 3.38184 12.0002 3.38184Z" fill="#555555"/>
<path d="M11.9201 13.7051H7.12007C6.68007 13.7051 6.32007 13.8951 6.32007 14.1405V15.6526C6.32007 15.8901 6.68007 16.088 7.12007 16.088H11.9201C12.3601 16.088 12.7201 15.898 12.7201 15.6526V14.1405C12.7201 13.903 12.3601 13.7051 11.9201 13.7051Z" fill="#555555"/>
<path d="M4.8002 6.65137H4.0002C3.55837 6.65137 3.2002 7.00581 3.2002 7.44303V8.2347C3.2002 8.67193 3.55837 9.02637 4.0002 9.02637H4.8002C5.24202 9.02637 5.6002 8.67193 5.6002 8.2347V7.44303C5.6002 7.00581 5.24202 6.65137 4.8002 6.65137Z" fill="#555555"/>
<path d="M8.31997 6.65137H7.51997C7.07814 6.65137 6.71997 7.00581 6.71997 7.44303V8.2347C6.71997 8.67193 7.07814 9.02637 7.51997 9.02637H8.31997C8.7618 9.02637 9.11997 8.67193 9.11997 8.2347V7.44303C9.11997 7.00581 8.7618 6.65137 8.31997 6.65137Z" fill="#555555"/>
<path d="M11.9198 6.65137H11.1198C10.678 6.65137 10.3198 7.00581 10.3198 7.44303V8.2347C10.3198 8.67193 10.678 9.02637 11.1198 9.02637H11.9198C12.3617 9.02637 12.7198 8.67193 12.7198 8.2347V7.44303C12.7198 7.00581 12.3617 6.65137 11.9198 6.65137Z" fill="#555555"/>
<path d="M4.8002 10.3164H4.0002C3.55837 10.3164 3.2002 10.6708 3.2002 11.1081V11.8997C3.2002 12.337 3.55837 12.6914 4.0002 12.6914H4.8002C5.24202 12.6914 5.6002 12.337 5.6002 11.8997V11.1081C5.6002 10.6708 5.24202 10.3164 4.8002 10.3164Z" fill="#555555"/>
<path d="M4.8002 13.7051H4.0002C3.55837 13.7051 3.2002 14.0595 3.2002 14.4967V15.2884C3.2002 15.7256 3.55837 16.0801 4.0002 16.0801H4.8002C5.24202 16.0801 5.6002 15.7256 5.6002 15.2884V14.4967C5.6002 14.0595 5.24202 13.7051 4.8002 13.7051Z" fill="#555555"/>
<path d="M8.31997 10.3164H7.51997C7.07814 10.3164 6.71997 10.6708 6.71997 11.1081V11.8997C6.71997 12.337 7.07814 12.6914 7.51997 12.6914H8.31997C8.7618 12.6914 9.11997 12.337 9.11997 11.8997V11.1081C9.11997 10.6708 8.7618 10.3164 8.31997 10.3164Z" fill="#555555"/>
<path d="M11.9198 10.3164H11.1198C10.678 10.3164 10.3198 10.6708 10.3198 11.1081V11.8997C10.3198 12.337 10.678 12.6914 11.1198 12.6914H11.9198C12.3617 12.6914 12.7198 12.337 12.7198 11.8997V11.1081C12.7198 10.6708 12.3617 10.3164 11.9198 10.3164Z" fill="#555555"/>
</svg>
