<svg width="66" height="91" viewBox="0 0 66 91" fill="none" xmlns="http://www.w3.org/2000/svg">
<path d="M0 33C0 14.7746 14.7746 0 33 0C51.2254 0 66 14.7746 66 33V87.2041C66 88.861 64.6569 90.2041 63 90.2041H3C1.34315 90.2041 0 88.861 0 87.2041V33Z" fill="#0051D3" fill-opacity="0.5"/>
<path d="M54.49 29.4936V55.7653C54.49 55.8947 54.4601 56.0042 54.4103 56.1037V56.1335L52.1315 60.5619C51.9822 60.8604 51.7533 61.0893 51.4747 61.2386V61.7362C51.4747 62.174 51.1164 62.5323 50.6786 62.5323C50.2407 62.5323 49.8825 62.174 49.8825 61.7362V61.2386C49.6038 61.0893 49.365 60.8604 49.2157 60.5619L46.9468 56.1335C46.9468 56.1335 46.9468 56.1136 46.9468 56.1037C46.897 56.0042 46.8672 55.8947 46.8672 55.7653V23.8213C46.8672 21.7116 48.5788 20 50.6885 20C52.7982 20 54.4999 21.7116 54.4999 23.8213V29.4936H54.49ZM52.8977 54.9692V30.2897H48.4495V54.9692H52.8977ZM52.8977 28.6975V27.2745H48.4495V28.6975H52.8977ZM52.8977 25.6822V23.8213C52.8977 22.5874 51.9026 21.5922 50.6786 21.5922C49.4545 21.5922 48.4495 22.5874 48.4495 23.8213V25.6822H52.8977ZM50.6388 59.8355L52.3703 56.5614H48.957L50.6388 59.8355Z" fill="#0051D3"/>
<path d="M52.898 30.2898H48.4497V54.9693H52.898V30.2898Z" fill="#0051D3"/>
<path d="M52.898 27.2744H48.4497V28.6975H52.898V27.2744Z" fill="#FFDA00"/>
<path d="M52.898 23.8214V25.6823H48.4497V23.8214C48.4497 22.5874 49.4448 21.5923 50.6788 21.5923C51.9128 21.5923 52.898 22.5874 52.898 23.8214Z" fill="#0051D3"/>
<path d="M52.3699 56.5615L50.6383 59.8355L48.9565 56.5615H52.3699Z" fill="#FFDA00"/>
<path d="M43.8918 30.6978V61.4874C43.8918 62.9801 42.6777 64.2041 41.1751 64.2041H14.2068C12.7141 64.2041 11.5 62.9801 11.5 61.4874V23.5925C11.5 22.0898 12.7141 20.8757 14.2068 20.8757H34.0698C34.0698 20.8757 34.0996 20.8857 34.1195 20.8857C34.1892 20.8857 34.2589 20.9056 34.3285 20.9255C34.3484 20.9354 34.3783 20.9454 34.3982 20.9553C34.4877 20.9951 34.5673 21.035 34.637 21.1046L43.6629 30.1305C43.7226 30.2002 43.7724 30.2798 43.8122 30.3694C43.8122 30.3893 43.8321 30.4191 43.842 30.439C43.862 30.5087 43.8819 30.5783 43.8819 30.648C43.8819 30.6679 43.8819 30.6779 43.8819 30.6978H43.8918ZM42.2996 61.4874V31.4939H35.9904C34.4877 31.4939 33.2737 30.2798 33.2737 28.7771V22.468H14.2068C13.5898 22.468 13.0823 22.9655 13.0823 23.5925V61.4874C13.0823 62.1044 13.5898 62.6119 14.2068 62.6119H41.1751C41.802 62.6119 42.2996 62.1044 42.2996 61.4874ZM35.9904 29.9017H41.1751L34.8659 23.5925V28.7771C34.8659 29.3941 35.3635 29.9017 35.9904 29.9017Z" fill="#0051D3"/>
<path d="M42.2993 31.4939V61.4875C42.2993 62.1044 41.8018 62.612 41.1748 62.612H14.2065C13.5896 62.612 13.082 62.1044 13.082 61.4875V23.5925C13.082 22.9656 13.5896 22.468 14.2065 22.468H33.2734V28.7772C33.2734 30.2799 34.4875 31.4939 35.9902 31.4939H42.2993ZM38.2491 36.0019C38.2491 35.5641 37.9008 35.2058 37.453 35.2058H17.9284C17.4905 35.2058 17.1323 35.5641 17.1323 36.0019C17.1323 36.4398 17.4905 36.798 17.9284 36.798H37.453C37.9008 36.798 38.2491 36.4398 38.2491 36.0019ZM38.2491 40.2114C38.2491 39.7735 37.9008 39.4153 37.453 39.4153H17.9284C17.4905 39.4153 17.1323 39.7735 17.1323 40.2114C17.1323 40.6492 17.4905 41.0075 17.9284 41.0075H37.453C37.9008 41.0075 38.2491 40.6492 38.2491 40.2114ZM38.2491 44.4208C38.2491 43.9829 37.9008 43.6247 37.453 43.6247H17.9284C17.4905 43.6247 17.1323 43.9829 17.1323 44.4208C17.1323 44.8587 17.4905 45.2169 17.9284 45.2169H37.453C37.9008 45.2169 38.2491 44.8587 38.2491 44.4208ZM38.2491 48.6302C38.2491 48.1924 37.9008 47.8341 37.453 47.8341H17.9284C17.4905 47.8341 17.1323 48.1924 17.1323 48.6302C17.1323 49.0681 17.4905 49.4264 17.9284 49.4264H37.453C37.9008 49.4264 38.2491 49.0681 38.2491 48.6302ZM38.2491 52.8397C38.2491 52.4018 37.9008 52.0436 37.453 52.0436H17.9284C17.4905 52.0436 17.1323 52.4018 17.1323 52.8397C17.1323 53.2776 17.4905 53.6358 17.9284 53.6358H37.453C37.9008 53.6358 38.2491 53.2776 38.2491 52.8397ZM38.2491 57.0491C38.2491 56.6113 37.9008 56.253 37.453 56.253H17.9284C17.4905 56.253 17.1323 56.6113 17.1323 57.0491C17.1323 57.487 17.4905 57.8452 17.9284 57.8452H37.453C37.9008 57.8452 38.2491 57.487 38.2491 57.0491ZM30.8751 26.5481C30.8751 26.1102 30.5169 25.752 30.079 25.752H15.9878C15.55 25.752 15.1917 26.1102 15.1917 26.5481V30.2003C15.1917 30.6481 15.55 30.9964 15.9878 30.9964H30.079C30.5169 30.9964 30.8751 30.6481 30.8751 30.2003C30.8751 29.7524 30.5169 29.4041 30.079 29.4041H16.784V27.3442H30.079C30.5169 27.3442 30.8751 26.986 30.8751 26.5481Z" fill="white"/>
<path d="M41.1754 29.9015H35.9907C35.3638 29.9015 34.8662 29.394 34.8662 28.777V23.5923L41.1754 29.9015Z" fill="#FFDA00"/>
<path d="M37.4531 35.2058C37.9009 35.2058 38.2492 35.5641 38.2492 36.0019C38.2492 36.4398 37.9009 36.798 37.4531 36.798H17.9284C17.4906 36.798 17.1323 36.4398 17.1323 36.0019C17.1323 35.5641 17.4906 35.2058 17.9284 35.2058H37.4531Z" fill="#0051D3"/>
<path d="M37.4531 39.4153C37.9009 39.4153 38.2492 39.7735 38.2492 40.2114C38.2492 40.6493 37.9009 41.0075 37.4531 41.0075H17.9284C17.4906 41.0075 17.1323 40.6493 17.1323 40.2114C17.1323 39.7735 17.4906 39.4153 17.9284 39.4153H37.4531Z" fill="#0051D3"/>
<path d="M37.4531 43.6245C37.9009 43.6245 38.2492 43.9828 38.2492 44.4206C38.2492 44.8585 37.9009 45.2167 37.4531 45.2167H17.9284C17.4906 45.2167 17.1323 44.8585 17.1323 44.4206C17.1323 43.9828 17.4906 43.6245 17.9284 43.6245H37.4531Z" fill="#0051D3"/>
<path d="M37.4531 47.834C37.9009 47.834 38.2492 48.1922 38.2492 48.6301C38.2492 49.068 37.9009 49.4262 37.4531 49.4262H17.9284C17.4906 49.4262 17.1323 49.068 17.1323 48.6301C17.1323 48.1922 17.4906 47.834 17.9284 47.834H37.4531Z" fill="#0051D3"/>
<path d="M37.4531 52.0435C37.9009 52.0435 38.2492 52.4017 38.2492 52.8396C38.2492 53.2774 37.9009 53.6357 37.4531 53.6357H17.9284C17.4906 53.6357 17.1323 53.2774 17.1323 52.8396C17.1323 52.4017 17.4906 52.0435 17.9284 52.0435H37.4531Z" fill="#0051D3"/>
<path d="M37.4531 56.2529C37.9009 56.2529 38.2492 56.6112 38.2492 57.049C38.2492 57.4869 37.9009 57.8452 37.4531 57.8452H17.9284C17.4906 57.8452 17.1323 57.4869 17.1323 57.049C17.1323 56.6112 17.4906 56.2529 17.9284 56.2529H37.4531Z" fill="#0051D3"/>
<path d="M30.0792 25.752C30.5171 25.752 30.8753 26.1102 30.8753 26.5481C30.8753 26.9859 30.5171 27.3442 30.0792 27.3442H16.7841V29.4041H30.0792C30.5171 29.4041 30.8753 29.7624 30.8753 30.2002C30.8753 30.6381 30.5171 30.9963 30.0792 30.9963H15.988C15.5501 30.9963 15.1919 30.648 15.1919 30.2002V26.5481C15.1919 26.1102 15.5501 25.752 15.988 25.752H30.0792Z" fill="#0051D3"/>
<path d="M13.614 74.1401H16.414V75.0921H13.614V74.1401ZM13.516 77.3181H16.386V78.2701H13.516V77.3181ZM18.346 70.6261H19.466V83.2961H18.346V70.6261ZM15.798 70.9621H16.904V82.6521H15.798V70.9621ZM12.984 72.2361H14.104C14.104 73.3374 13.9453 74.3968 13.628 75.4141C13.3107 76.4221 12.802 77.3648 12.102 78.2421C11.4113 79.1101 10.5013 79.8848 9.372 80.5661L8.686 79.7261C9.67533 79.1288 10.4873 78.4568 11.122 77.7101C11.7567 76.9541 12.2233 76.1374 12.522 75.2601C12.83 74.3734 12.984 73.4354 12.984 72.4461V72.2361ZM9.246 72.2361H13.432V73.1881H9.246V72.2361ZM21.3549 71.7741H28.7609V72.6561H21.3549V71.7741ZM25.0509 73.1321C25.6669 73.1321 26.1989 73.2114 26.6469 73.3701C27.0949 73.5194 27.4449 73.7341 27.6969 74.0141C27.9489 74.2941 28.0749 74.6301 28.0749 75.0221C28.0749 75.4048 27.9489 75.7408 27.6969 76.0301C27.4449 76.3101 27.0949 76.5248 26.6469 76.6741C26.1989 76.8234 25.6669 76.8981 25.0509 76.8981C24.4536 76.8981 23.9309 76.8234 23.4829 76.6741C23.0349 76.5248 22.6849 76.3101 22.4329 76.0301C22.1809 75.7408 22.0549 75.4048 22.0549 75.0221C22.0549 74.6301 22.1809 74.2941 22.4329 74.0141C22.6849 73.7341 23.0349 73.5194 23.4829 73.3701C23.9309 73.2114 24.4536 73.1321 25.0509 73.1321ZM25.0649 73.9441C24.4862 73.9441 24.0242 74.0421 23.6789 74.2381C23.3336 74.4248 23.1609 74.6861 23.1609 75.0221C23.1609 75.3394 23.3336 75.5961 23.6789 75.7921C24.0336 75.9881 24.4956 76.0861 25.0649 76.0861C25.6436 76.0861 26.1056 75.9881 26.4509 75.7921C26.7962 75.5961 26.9689 75.3394 26.9689 75.0221C26.9689 74.6861 26.7962 74.4248 26.4509 74.2381C26.1056 74.0421 25.6436 73.9441 25.0649 73.9441ZM24.4769 70.5421H25.6389V72.2501H24.4769V70.5421ZM24.4769 76.4501H25.6389V78.1581H24.4769V76.4501ZM30.0769 70.6541H31.2389V79.1101H30.0769V70.6541ZM22.7549 79.7121H31.2389V83.2961H30.0769V80.6361H22.7549V79.7121ZM21.1029 78.7181L20.9349 77.7941C21.7189 77.7941 22.5682 77.7894 23.4829 77.7801C24.4069 77.7614 25.3449 77.7241 26.2969 77.6681C27.2582 77.6121 28.1776 77.5234 29.0549 77.4021L29.1389 78.2141C28.2242 78.3728 27.2909 78.4894 26.3389 78.5641C25.3962 78.6294 24.4769 78.6714 23.5809 78.6901C22.6849 78.7088 21.8589 78.7181 21.1029 78.7181ZM41.9198 70.6261H43.0818V83.2961H41.9198V70.6261ZM42.5078 75.6521H44.8458V76.6461H42.5078V75.6521ZM34.8358 72.5021H35.7038V74.3921C35.7038 74.9428 35.6711 75.5168 35.6058 76.1141C35.5405 76.7021 35.4285 77.2808 35.2698 77.8501C35.1111 78.4194 34.8965 78.9468 34.6258 79.4321C34.3645 79.9174 34.0285 80.3188 33.6178 80.6361L32.8758 79.7821C33.2585 79.4928 33.5758 79.1381 33.8278 78.7181C34.0891 78.2888 34.2898 77.8268 34.4298 77.3321C34.5791 76.8374 34.6818 76.3381 34.7378 75.8341C34.8031 75.3208 34.8358 74.8401 34.8358 74.3921V72.5021ZM35.0878 72.5021H35.9418V74.3921C35.9418 74.8028 35.9651 75.2554 36.0118 75.7501C36.0585 76.2448 36.1471 76.7488 36.2778 77.2621C36.4085 77.7754 36.5951 78.2608 36.8378 78.7181C37.0805 79.1661 37.4025 79.5534 37.8038 79.8801L37.1458 80.7481C36.7165 80.4121 36.3665 79.9874 36.0958 79.4741C35.8251 78.9608 35.6151 78.4101 35.4658 77.8221C35.3165 77.2248 35.2138 76.6274 35.1578 76.0301C35.1111 75.4328 35.0878 74.8868 35.0878 74.3921V72.5021ZM38.3638 72.5021H39.2038V74.3921C39.2038 74.9148 39.1758 75.4794 39.1198 76.0861C39.0731 76.6834 38.9751 77.2761 38.8258 77.8641C38.6765 78.4521 38.4665 78.9981 38.1958 79.5021C37.9251 80.0061 37.5751 80.4214 37.1458 80.7481L36.5018 79.8801C36.8938 79.5628 37.2111 79.1848 37.4538 78.7461C37.7058 78.2981 37.8971 77.8221 38.0278 77.3181C38.1585 76.8048 38.2471 76.2961 38.2938 75.7921C38.3405 75.2881 38.3638 74.8214 38.3638 74.3921V72.5021ZM38.6018 72.5021H39.4698V74.3921C39.4698 74.8588 39.4978 75.3488 39.5538 75.8621C39.6191 76.3754 39.7218 76.8794 39.8618 77.3741C40.0111 77.8594 40.2118 78.3121 40.4638 78.7321C40.7251 79.1428 41.0471 79.4928 41.4298 79.7821L40.6878 80.6361C40.2865 80.3188 39.9505 79.9268 39.6798 79.4601C39.4091 78.9841 39.1945 78.4614 39.0358 77.8921C38.8771 77.3228 38.7651 76.7394 38.6998 76.1421C38.6345 75.5448 38.6018 74.9614 38.6018 74.3921V72.5021ZM33.2818 71.9141H36.8798V72.8661H33.2818V71.9141ZM37.4258 71.9141H40.9118V72.8661H37.4258V71.9141ZM54.4627 70.6261H55.6247V83.2961H54.4627V70.6261ZM50.7527 71.9981H51.9007C51.9007 72.9128 51.7887 73.7948 51.5647 74.6441C51.3501 75.4934 51.0094 76.3008 50.5427 77.0661C50.0761 77.8221 49.4694 78.5268 48.7227 79.1801C47.9761 79.8334 47.0707 80.4168 46.0067 80.9301L45.3907 79.9921C46.6134 79.4041 47.6214 78.7181 48.4147 77.9341C49.2081 77.1501 49.7961 76.2774 50.1787 75.3161C50.5614 74.3454 50.7527 73.3001 50.7527 72.1801V71.9981ZM45.9787 71.9981H51.2427V72.9361H45.9787V71.9981Z" fill="white"/>
</svg>
