<svg width="43" height="45" viewBox="0 0 43 45" fill="none" xmlns="http://www.w3.org/2000/svg">
<path d="M42.99 9.49364V35.7653C42.99 35.8947 42.9601 36.0042 42.9103 36.1037V36.1335L40.6315 40.5619C40.4822 40.8604 40.2533 41.0893 39.9747 41.2386V41.7362C39.9747 42.174 39.6164 42.5323 39.1786 42.5323C38.7407 42.5323 38.3825 42.174 38.3825 41.7362V41.2386C38.1038 41.0893 37.865 40.8604 37.7157 40.5619L35.4468 36.1335C35.4468 36.1335 35.4468 36.1136 35.4468 36.1037C35.397 36.0042 35.3672 35.8947 35.3672 35.7653V3.82134C35.3672 1.71164 37.0788 0 39.1885 0C41.2982 0 42.9999 1.71164 42.9999 3.82134V9.49364H42.99ZM41.3977 34.9692V10.2897H36.9495V34.9692H41.3977ZM41.3977 8.69752V7.27447H36.9495V8.69752H41.3977ZM41.3977 5.68225V3.82134C41.3977 2.58736 40.4026 1.59222 39.1786 1.59222C37.9545 1.59222 36.9495 2.58736 36.9495 3.82134V5.68225H41.3977ZM39.1388 39.8355L40.8703 36.5614H37.457L39.1388 39.8355Z" fill="#0051D3"/>
<path d="M41.398 10.2896H36.9497V34.969H41.398V10.2896Z" fill="#0051D3"/>
<path d="M41.398 7.27441H36.9497V8.69746H41.398V7.27441Z" fill="#FFDA00"/>
<path d="M41.398 3.8214V5.68231H36.9497V3.8214C36.9497 2.58743 37.9448 1.59229 39.1788 1.59229C40.4128 1.59229 41.398 2.58743 41.398 3.8214Z" fill="#0051D3"/>
<path d="M40.8699 36.5615L39.1383 39.8355L37.4565 36.5615H40.8699Z" fill="#FFDA00"/>
<path d="M32.3918 10.6975V41.4872C32.3918 42.9799 31.1777 44.2039 29.6751 44.2039H2.70678C1.21407 44.2039 0 42.9799 0 41.4872V3.59222C0 2.08956 1.21407 0.875488 2.70678 0.875488H22.5698C22.5698 0.875488 22.5996 0.88544 22.6195 0.88544C22.6892 0.88544 22.7589 0.905342 22.8285 0.925245C22.8484 0.935197 22.8783 0.945148 22.8982 0.955099C22.9877 0.994905 23.0673 1.03471 23.137 1.10437L32.1629 10.1303C32.2226 10.2 32.2724 10.2796 32.3122 10.3691C32.3122 10.389 32.3321 10.4189 32.342 10.4388C32.362 10.5084 32.3819 10.5781 32.3819 10.6478C32.3819 10.6677 32.3819 10.6776 32.3819 10.6975H32.3918ZM30.7996 41.4872V11.4936H24.4904C22.9877 11.4936 21.7737 10.2796 21.7737 8.7769V2.46771H2.70678C2.08979 2.46771 1.58227 2.96528 1.58227 3.59222V41.4872C1.58227 42.1041 2.08979 42.6117 2.70678 42.6117H29.6751C30.302 42.6117 30.7996 42.1041 30.7996 41.4872ZM24.4904 9.90141H29.6751L23.3659 3.59222V8.7769C23.3659 9.39389 23.8635 9.90141 24.4904 9.90141Z" fill="#0051D3"/>
<path d="M30.7993 11.4937V41.4872C30.7993 42.1042 30.3018 42.6117 29.6748 42.6117H2.70654C2.08955 42.6117 1.58203 42.1042 1.58203 41.4872V3.59228C1.58203 2.96534 2.08955 2.46777 2.70654 2.46777H21.7734V8.77696C21.7734 10.2796 22.9875 11.4937 24.4902 11.4937H30.7993ZM26.7491 16.0017C26.7491 15.5638 26.4008 15.2056 25.953 15.2056H6.42836C5.9905 15.2056 5.63225 15.5638 5.63225 16.0017C5.63225 16.4395 5.9905 16.7978 6.42836 16.7978H25.953C26.4008 16.7978 26.7491 16.4395 26.7491 16.0017ZM26.7491 20.2111C26.7491 19.7733 26.4008 19.415 25.953 19.415H6.42836C5.9905 19.415 5.63225 19.7733 5.63225 20.2111C5.63225 20.649 5.9905 21.0072 6.42836 21.0072H25.953C26.4008 21.0072 26.7491 20.649 26.7491 20.2111ZM26.7491 24.4206C26.7491 23.9827 26.4008 23.6245 25.953 23.6245H6.42836C5.9905 23.6245 5.63225 23.9827 5.63225 24.4206C5.63225 24.8584 5.9905 25.2167 6.42836 25.2167H25.953C26.4008 25.2167 26.7491 24.8584 26.7491 24.4206ZM26.7491 28.63C26.7491 28.1921 26.4008 27.8339 25.953 27.8339H6.42836C5.9905 27.8339 5.63225 28.1921 5.63225 28.63C5.63225 29.0679 5.9905 29.4261 6.42836 29.4261H25.953C26.4008 29.4261 26.7491 29.0679 26.7491 28.63ZM26.7491 32.8394C26.7491 32.4016 26.4008 32.0433 25.953 32.0433H6.42836C5.9905 32.0433 5.63225 32.4016 5.63225 32.8394C5.63225 33.2773 5.9905 33.6356 6.42836 33.6356H25.953C26.4008 33.6356 26.7491 33.2773 26.7491 32.8394ZM26.7491 37.0489C26.7491 36.611 26.4008 36.2528 25.953 36.2528H6.42836C5.9905 36.2528 5.63225 36.611 5.63225 37.0489C5.63225 37.4868 5.9905 37.845 6.42836 37.845H25.953C26.4008 37.845 26.7491 37.4868 26.7491 37.0489ZM19.3751 6.54785C19.3751 6.10999 19.0169 5.75174 18.579 5.75174H4.48784C4.04998 5.75174 3.69173 6.10999 3.69173 6.54785V10.2C3.69173 10.6478 4.04998 10.9961 4.48784 10.9961H18.579C19.0169 10.9961 19.3751 10.6478 19.3751 10.2C19.3751 9.7522 19.0169 9.4039 18.579 9.4039H5.28395V7.34396H18.579C19.0169 7.34396 19.3751 6.98571 19.3751 6.54785Z" fill="white"/>
<path d="M29.6754 9.90147H24.4907C23.8638 9.90147 23.3662 9.39395 23.3662 8.77696V3.59229L29.6754 9.90147Z" fill="#FFDA00"/>
<path d="M25.9531 15.2056C26.4009 15.2056 26.7492 15.5638 26.7492 16.0017C26.7492 16.4395 26.4009 16.7978 25.9531 16.7978H6.42844C5.99057 16.7978 5.63232 16.4395 5.63232 16.0017C5.63232 15.5638 5.99057 15.2056 6.42844 15.2056H25.9531Z" fill="#0051D3"/>
<path d="M25.9531 19.415C26.4009 19.415 26.7492 19.7733 26.7492 20.2112C26.7492 20.649 26.4009 21.0073 25.9531 21.0073H6.42844C5.99057 21.0073 5.63232 20.649 5.63232 20.2112C5.63232 19.7733 5.99057 19.415 6.42844 19.415H25.9531Z" fill="#0051D3"/>
<path d="M25.9531 23.6245C26.4009 23.6245 26.7492 23.9828 26.7492 24.4206C26.7492 24.8585 26.4009 25.2167 25.9531 25.2167H6.42844C5.99057 25.2167 5.63232 24.8585 5.63232 24.4206C5.63232 23.9828 5.99057 23.6245 6.42844 23.6245H25.9531Z" fill="#0051D3"/>
<path d="M25.9531 27.834C26.4009 27.834 26.7492 28.1922 26.7492 28.6301C26.7492 29.068 26.4009 29.4262 25.9531 29.4262H6.42844C5.99057 29.4262 5.63232 29.068 5.63232 28.6301C5.63232 28.1922 5.99057 27.834 6.42844 27.834H25.9531Z" fill="#0051D3"/>
<path d="M25.9531 32.0435C26.4009 32.0435 26.7492 32.4017 26.7492 32.8396C26.7492 33.2774 26.4009 33.6357 25.9531 33.6357H6.42844C5.99057 33.6357 5.63232 33.2774 5.63232 32.8396C5.63232 32.4017 5.99057 32.0435 6.42844 32.0435H25.9531Z" fill="#0051D3"/>
<path d="M25.9531 36.2529C26.4009 36.2529 26.7492 36.6112 26.7492 37.049C26.7492 37.4869 26.4009 37.8452 25.9531 37.8452H6.42844C5.99057 37.8452 5.63232 37.4869 5.63232 37.049C5.63232 36.6112 5.99057 36.2529 6.42844 36.2529H25.9531Z" fill="#0051D3"/>
<path d="M18.5792 5.75195C19.0171 5.75195 19.3753 6.1102 19.3753 6.54807C19.3753 6.98593 19.0171 7.34418 18.5792 7.34418H5.28412V9.40412H18.5792C19.0171 9.40412 19.3753 9.76237 19.3753 10.2002C19.3753 10.6381 19.0171 10.9963 18.5792 10.9963H4.48801C4.05015 10.9963 3.69189 10.648 3.69189 10.2002V6.54807C3.69189 6.1102 4.05015 5.75195 4.48801 5.75195H18.5792Z" fill="#0051D3"/>
</svg>
