<svg width="16" height="16" viewBox="0 0 16 16" fill="none" xmlns="http://www.w3.org/2000/svg">
<g id="Star 02">
<path id="Icon" d="M7.66335 1.80925C7.80106 1.53022 8.19895 1.53022 8.33666 1.80925L10.1193 5.42133C10.174 5.53213 10.2797 5.60893 10.402 5.6267L14.3882 6.20593C14.6961 6.25067 14.819 6.62909 14.5962 6.84628L11.7118 9.6579C11.6233 9.74414 11.583 9.86841 11.6038 9.99019L12.2848 13.9603C12.3374 14.2669 12.0155 14.5008 11.74 14.356L8.1747 12.4816C8.06533 12.4241 7.93467 12.4241 7.8253 12.4816L4.25996 14.356C3.98455 14.5008 3.66265 14.2669 3.71525 13.9603L4.39617 9.99019C4.41705 9.86841 4.37668 9.74414 4.2882 9.6579L1.40378 6.84628C1.18096 6.62909 1.30391 6.25067 1.61184 6.20593L5.59801 5.6267C5.72029 5.60893 5.82599 5.53213 5.88068 5.42133L7.66335 1.80925Z" fill="#0051D3"/>
</g>
</svg>
