<svg width="16" height="16" viewBox="0 0 16 16" fill="none" xmlns="http://www.w3.org/2000/svg">
<g id="Star 6">
<path id="Icon" d="M7.66335 1.80937C7.80106 1.53034 8.19895 1.53034 8.33666 1.80937L10.1193 5.42145C10.174 5.53226 10.2797 5.60906 10.402 5.62682L14.3882 6.20605C14.6961 6.25079 14.819 6.62921 14.5962 6.8464L11.7118 9.65802C11.6233 9.74427 11.583 9.86853 11.6038 9.99032L12.2848 13.9604C12.3374 14.2671 12.0155 14.5009 11.74 14.3561L8.1747 12.4817C8.06533 12.4242 7.93467 12.4242 7.8253 12.4817L4.25996 14.3561C3.98455 14.5009 3.66265 14.2671 3.71525 13.9604L4.39617 9.99032C4.41705 9.86853 4.37668 9.74427 4.2882 9.65802L1.40378 6.8464C1.18096 6.62921 1.30391 6.25079 1.61184 6.20605L5.59801 5.62682C5.72029 5.60906 5.82599 5.53226 5.88068 5.42145L7.66335 1.80937Z" fill="#B5B5B5"/>
</g>
</svg>
