<svg width="18" height="14" viewBox="0 0 18 14" fill="none" xmlns="http://www.w3.org/2000/svg">
<g id="three-slider-horizontal">
<path id="Vector" d="M7.2 3.4C7.2 2.07452 6.12548 1 4.8 1C3.47452 1 2.4 2.07452 2.4 3.4M7.2 3.4C7.2 4.72548 6.12548 5.8 4.8 5.8C3.47452 5.8 2.4 4.72548 2.4 3.4M7.2 3.4H17.6M2.4 3.4H0M10.4 11C10.4 9.67452 11.4745 8.6 12.8 8.6C14.1255 8.6 15.2 9.67452 15.2 11M10.4 11C10.4 12.3255 11.4745 13.4 12.8 13.4C14.1255 13.4 15.2 12.3255 15.2 11M10.4 11H0M15.2 11H17.6" stroke="#111111"/>
</g>
</svg>
