<svg width="22" height="20" viewBox="0 0 22 20" fill="none" xmlns="http://www.w3.org/2000/svg">
<path d="M20.1667 4.68929H15.8767C15.8308 2.37437 13.6675 0.5 11 0.5C8.3325 0.5 6.17833 2.37437 6.12333 4.68929H1.83333C0.825 4.68929 0 5.4102 0 6.29132V17.898C0 18.7791 0.825 19.5 1.83333 19.5H20.1667C21.175 19.5 22 18.7791 22 17.898V6.29132C22 5.4102 21.175 4.68929 20.1667 4.68929ZM11 2.10202C12.65 2.10202 13.9883 3.25548 14.0433 4.68929H7.96583C8.01167 3.25548 9.35917 2.10202 11.0092 2.10202H11ZM1.83333 17.898V6.29132H4.10667V17.898H1.83333ZM5.94 17.898V17.161C6.23333 17.3373 6.59083 17.4414 6.96667 17.4414C7.02167 17.4414 7.0675 17.4414 7.1225 17.4414L11.8067 17.097C12.2925 17.0649 12.7417 16.8567 13.0533 16.5363C13.365 16.2078 13.5208 15.7913 13.4842 15.3668L13.3742 14.1893C13.2917 13.3562 12.4942 12.7234 11.55 12.7234C11.495 12.7234 11.4492 12.7234 11.3942 12.7234L6.71 13.0679C6.435 13.0919 6.17833 13.164 5.94917 13.2841V6.29132H16.06V8.91062C16.06 8.91062 16.0508 8.91062 16.0417 8.91062L11.4583 8.0215C11.33 7.99747 11.1925 7.98145 11.0642 7.98145C10.7158 7.98145 10.3767 8.06956 10.0833 8.22976C9.67083 8.45405 9.38667 8.82251 9.27667 9.23103L8.98333 10.3845C8.76333 11.2496 9.38667 12.1067 10.3767 12.2989L14.96 13.188C15.0883 13.2121 15.2258 13.2281 15.3542 13.2281C15.6017 13.2281 15.84 13.172 16.06 13.0839V17.898H5.94ZM6.85667 14.6619L11.5408 14.3175L11.6508 15.4949L6.96667 15.8394L6.85667 14.6619ZM15.6383 10.4726L15.345 11.6261L10.7617 10.7369L11.055 9.58347L15.6383 10.4726ZM20.1667 17.898H17.8933V6.29132H20.1667V17.898Z" fill="#555555"/>
</svg>
