<svg width="25" height="24" viewBox="0 0 25 24" fill="none" xmlns="http://www.w3.org/2000/svg">
<g id="travel" clip-path="url(#clip0_239_1727)">
<path id="Vector" d="M22.6666 5.36989H17.9866C17.9366 2.47989 15.5766 0.139893 12.6666 0.139893C9.75663 0.139893 7.40663 2.47989 7.34663 5.36989H2.66663C1.56663 5.36989 0.666626 6.26989 0.666626 7.36989V21.8599C0.666626 22.9599 1.56663 23.8599 2.66663 23.8599H22.6666C23.7666 23.8599 24.6666 22.9599 24.6666 21.8599V7.36989C24.6666 6.26989 23.7666 5.36989 22.6666 5.36989ZM12.6666 2.13989C14.4666 2.13989 15.9266 3.57989 15.9866 5.36989H9.35663C9.40663 3.57989 10.8766 2.13989 12.6766 2.13989H12.6666ZM2.66663 21.8599V7.36989H5.14663V21.8599H2.66663ZM7.14663 21.8599V20.9399C7.46663 21.1599 7.85663 21.2899 8.26663 21.2899C8.32663 21.2899 8.37663 21.2899 8.43663 21.2899L13.5466 20.8599C14.0766 20.8199 14.5666 20.5599 14.9066 20.1599C15.2466 19.7499 15.4166 19.2299 15.3766 18.6999L15.2566 17.2299C15.1666 16.1899 14.2966 15.3999 13.2666 15.3999C13.2066 15.3999 13.1566 15.3999 13.0966 15.3999L7.98663 15.8299C7.68663 15.8599 7.40663 15.9499 7.15663 16.0999V7.36989H18.1866V10.6399C18.1866 10.6399 18.1766 10.6399 18.1666 10.6399L13.1666 9.52989C13.0266 9.49989 12.8766 9.47989 12.7366 9.47989C12.3566 9.47989 11.9866 9.58989 11.6666 9.78989C11.2166 10.0699 10.9066 10.5299 10.7866 11.0399L10.4666 12.4799C10.2266 13.5599 10.9066 14.6299 11.9866 14.8699L16.9866 15.9799C17.1266 16.0099 17.2766 16.0299 17.4166 16.0299C17.6866 16.0299 17.9466 15.9599 18.1866 15.8499V21.8599H7.14663ZM8.14663 17.8199L13.2566 17.3899L13.3766 18.8599L8.26663 19.2899L8.14663 17.8199ZM17.7266 12.5899L17.4066 14.0299L12.4066 12.9199L12.7266 11.4799L17.7266 12.5899ZM22.6666 21.8599H20.1866V7.36989H22.6666V21.8599Z" fill="#555555"/>
</g>
<defs>
<clipPath id="clip0_239_1727">
<rect width="24" height="23.72" fill="white" transform="translate(0.666626 0.139893)"/>
</clipPath>
</defs>
</svg>
