<svg width="44" height="45" viewBox="0 0 44 45" fill="none" xmlns="http://www.w3.org/2000/svg">
<path d="M43.5 24.8754C43.5 29.725 41.4412 34.3954 37.8431 37.7612L39.2059 43.2083C39.2745 43.4871 39.1961 43.7859 38.9902 43.985C38.8431 44.1245 38.6471 44.2041 38.451 44.2041C38.3725 44.2041 38.2941 44.1942 38.2255 44.1742L30.7059 41.9038C28.8529 42.4913 26.9216 42.7801 24.9608 42.7801C19.2451 42.7801 13.8137 40.191 10.3039 35.8293L5.78431 37.1936C5.70588 37.2235 5.63726 37.2334 5.55883 37.2334C5.36275 37.2334 5.16667 37.1538 5.01961 37.0044C4.81373 36.8052 4.72549 36.5164 4.80392 36.2376L6.16667 30.7806C2.55882 27.4147 0.5 22.7543 0.5 17.9047C0.5 8.02625 8.82353 0 19.049 0C26.4902 0 32.9118 4.27204 35.8529 10.3963C40.6471 13.7621 43.5 19.1594 43.5 24.8754ZM41.9314 24.8754C41.9314 20.5436 40.1176 16.411 36.9804 13.3738C37.049 13.6227 37.1078 13.8816 37.1667 14.1405C37.1863 14.2202 37.2059 14.2899 37.2157 14.3596C37.3235 14.8774 37.402 15.4052 37.4706 15.933L37.5 16.2616C37.549 16.7994 37.5882 17.3471 37.5882 17.9047C37.5882 27.7732 29.2647 35.8094 19.049 35.8094C17.0882 35.8094 15.1569 35.5107 13.3039 34.9231L11.9412 35.3414C15.1569 39.0259 19.9412 41.1868 24.9608 41.1868C26.8333 41.1868 28.6863 40.898 30.4608 40.3105C30.5392 40.2806 30.6177 40.2707 30.6961 40.2707C30.7745 40.2707 30.8529 40.2806 30.9216 40.3005L37.3431 42.2424L36.2059 37.6815C36.1274 37.3928 36.2255 37.0841 36.451 36.8849C39.9314 33.7979 41.9314 29.4263 41.9314 24.8754ZM36.0196 17.9047C36.0196 17.3371 35.9902 16.7794 35.9216 16.2218C35.902 16.0226 35.8627 15.8434 35.8333 15.6442C35.7843 15.2857 35.7353 14.9272 35.6569 14.5687C35.6176 14.3795 35.549 14.1903 35.5 13.9912C35.4118 13.6426 35.3333 13.3041 35.2157 12.9655C35.1569 12.7763 35.0784 12.607 35.0098 12.4178C34.8823 12.0792 34.7549 11.7406 34.6078 11.412C31.9902 5.6363 26 1.5933 19.049 1.5933C9.68627 1.5933 2.06863 8.91252 2.06863 17.9047C2.06863 22.4556 4.06862 26.8272 7.55882 29.9142C7.78431 30.1034 7.87255 30.4121 7.80392 30.7109L6.65686 35.2717L10.3627 34.1564L13.0784 33.3298C13.1471 33.3099 13.2059 33.3099 13.2745 33.3H13.3137C13.3922 33.3 13.4706 33.3099 13.549 33.3398C15.3235 33.9174 17.1765 34.2161 19.049 34.2161C28.402 34.2161 36.0196 26.8969 36.0196 17.9047Z" fill="#0051D3"/>
<path d="M36.9806 13.3738C40.1179 16.411 41.9316 20.5436 41.9316 24.8754C41.9316 29.4263 39.9316 33.7979 36.4512 36.8849C36.2257 37.0841 36.1277 37.3928 36.2061 37.6816L37.3434 42.2424L30.9218 40.3006C30.8532 40.2806 30.7747 40.2707 30.6963 40.2707C30.6179 40.2707 30.5394 40.2806 30.461 40.3105C28.6865 40.898 26.8336 41.1868 24.961 41.1868C19.9414 41.1868 15.1571 39.0259 11.9414 35.3414L13.3042 34.9232C15.1571 35.5107 17.0885 35.8094 19.0492 35.8094C29.2649 35.8094 37.5885 27.7732 37.5885 17.9047C37.5885 17.3471 37.5492 16.7994 37.5002 16.2616L37.4708 15.933C37.4022 15.4052 37.3238 14.8775 37.2159 14.3596C37.2061 14.2899 37.1865 14.2202 37.1669 14.1406C37.1081 13.8816 37.0493 13.6227 36.9806 13.3738Z" fill="#FFDA00"/>
<path d="M35.9213 16.222C35.9899 16.7796 36.0193 17.3373 36.0193 17.9049C36.0193 26.8971 28.4017 34.2163 19.0488 34.2163C17.1762 34.2163 15.3233 33.9176 13.5488 33.34C13.4703 33.3101 13.3919 33.3002 13.3135 33.3002H13.2742C13.2056 33.3101 13.1468 33.3101 13.0782 33.3301L10.3625 34.1566L6.65659 35.2719L7.80365 30.7111C7.87228 30.4123 7.78404 30.1036 7.55855 29.9144C4.06836 26.8274 2.06836 22.4558 2.06836 17.9049C2.06836 8.91273 9.68601 1.59351 19.0488 1.59351C25.9997 1.59351 31.9899 5.6365 34.6076 11.4122C34.7546 11.7408 34.8821 12.0794 35.0095 12.418C35.0782 12.6072 35.1566 12.7765 35.2154 12.9657C35.3331 13.3043 35.4115 13.6428 35.4997 13.9914C35.5488 14.1905 35.6174 14.3797 35.6566 14.5689C35.735 14.9274 35.784 15.2859 35.8331 15.6444C35.8625 15.8436 35.9017 16.0228 35.9213 16.222ZM30.2939 23.4914C31.8625 21.9579 32.3723 19.6974 31.637 17.5962C30.9311 15.5946 29.2154 14.2403 27.1664 14.071C27.0488 14.071 26.9311 14.071 26.8135 14.071C26.9801 12.7566 26.6958 11.3923 25.9801 10.2571C25.0978 8.8729 23.7056 8.02646 22.0782 7.88704C21.9017 7.87708 21.7252 7.86713 21.5488 7.86713C19.6076 7.86713 17.8135 8.7534 16.6076 10.267C15.4017 8.7534 13.6076 7.86713 11.6664 7.86713C11.4899 7.86713 11.3135 7.87708 11.137 7.88704C9.08797 8.06629 7.38209 9.41064 6.67621 11.4222C5.94091 13.5233 6.45072 15.7739 8.00954 17.3074L11.588 20.8127C11.8233 21.8185 12.3331 22.7446 13.1076 23.5014L19.3919 29.6655C20.0389 30.3028 20.8723 30.6214 21.6958 30.6214C22.5193 30.6214 23.3625 30.3028 23.9997 29.6655L30.2939 23.5014V23.4914Z" fill="white"/>
<path d="M31.6379 17.596C32.3732 19.6971 31.8634 21.9576 30.2947 23.4912L24.0006 29.6553C23.3634 30.2926 22.53 30.6113 21.6967 30.6113C20.8634 30.6113 20.0398 30.2926 19.3928 29.6553L13.1085 23.4912C12.334 22.7344 11.8241 21.8083 11.5889 20.8025L8.01043 17.2972C6.45161 15.7637 5.9418 13.5131 6.6771 11.412C7.38298 9.40044 9.08886 8.0561 11.1379 7.87685C11.3143 7.86689 11.4908 7.85693 11.6673 7.85693C13.6085 7.85693 15.4026 8.74321 16.6085 10.2568C17.8143 8.74321 19.6085 7.85693 21.5496 7.85693C21.7261 7.85693 21.9026 7.86689 22.0791 7.87685C23.7065 8.01626 25.0987 8.8627 25.981 10.2469C26.6967 11.3821 26.981 12.7464 26.8144 14.0608C26.932 14.0608 27.0496 14.0608 27.1673 14.0608C29.2163 14.2301 30.932 15.5844 31.6379 17.586V17.596ZM29.2065 22.346C30.5398 21.0415 30.5693 19.3187 30.1575 18.1337C29.6575 16.7097 28.4908 15.7836 27.0398 15.6541C26.6575 15.6243 26.2751 15.6442 25.8928 15.7139C25.5889 15.7537 25.2947 15.8434 25.0104 15.9429C24.9516 15.9628 24.9026 15.9828 24.8536 16.0126C24.5987 16.1122 24.3634 16.2317 24.1281 16.3811C24.0987 16.401 24.0594 16.4209 24.03 16.4408C23.7849 16.6002 23.5594 16.7894 23.3438 16.9985C23.2947 17.0383 23.2457 17.0981 23.1967 17.1479C22.9908 17.3669 22.7947 17.596 22.6281 17.8549C22.334 18.313 21.7359 18.4325 21.2653 18.2433C21.0693 18.1736 20.8928 18.0441 20.7751 17.8549C19.883 16.4707 18.383 15.6442 16.7653 15.6442C16.6281 15.6442 16.4908 15.6442 16.3634 15.6541C16.1869 15.6741 16.0202 15.7039 15.8536 15.7338L15.7653 15.7637C15.6281 15.7936 15.5006 15.8334 15.3634 15.8832C15.334 15.8832 15.3144 15.9131 15.2849 15.923C15.1575 15.9728 15.0398 16.0326 14.9222 16.0923C14.8928 16.1122 14.8634 16.1222 14.8438 16.1421C14.7065 16.2218 14.5791 16.3014 14.4614 16.401C14.432 16.4209 14.4124 16.4408 14.383 16.4608C14.3045 16.5305 14.2261 16.6002 14.1477 16.6798C14.0987 16.7296 14.0594 16.7794 14.0104 16.8192C13.9418 16.8989 13.8732 16.9885 13.8143 17.0682C13.6477 17.2873 13.5104 17.5163 13.4026 17.7653C13.3928 17.7752 13.3928 17.7951 13.383 17.8151C13.1575 18.313 13.0398 18.8507 13.0202 19.3984V19.4283C13.0104 19.7071 13.03 19.9859 13.0889 20.2648V20.2847C13.2163 20.9917 13.5594 21.7186 14.1967 22.346L20.481 28.5101C21.1673 29.1773 22.2359 29.1773 22.9124 28.5101L29.2065 22.346ZM25.1967 14.2202C25.4418 13.1646 25.2457 12.0393 24.6575 11.1132C24.0496 10.1473 23.0791 9.55977 21.9516 9.47015C20.2065 9.32078 18.5006 10.1672 17.5398 11.6709C17.1281 12.3082 16.0889 12.3082 15.6869 11.6709C14.7947 10.2768 13.2947 9.45023 11.6673 9.45023C11.5398 9.45023 11.4026 9.45023 11.2653 9.47015C9.81435 9.58965 8.65748 10.5158 8.15748 11.9398C7.73591 13.1248 7.77513 14.8475 9.09866 16.1521L11.53 18.532V18.5022L11.6183 18.1437C11.6477 18.0043 11.6869 17.8748 11.7261 17.7454C11.7457 17.6956 11.7457 17.6458 11.7653 17.596C11.7849 17.5362 11.8143 17.4864 11.834 17.4367C11.883 17.3072 11.9418 17.1877 11.9908 17.0682C12.0398 16.9686 12.0987 16.8591 12.1477 16.7595C12.2065 16.65 12.2751 16.5504 12.3438 16.4408C12.4026 16.3512 12.4614 16.2516 12.53 16.162C12.5398 16.1421 12.5496 16.1222 12.5692 16.1023C12.5889 16.0624 12.6281 16.0425 12.6575 16.0027C12.8143 15.7936 13.0006 15.6044 13.1967 15.4251C13.2555 15.3554 13.3242 15.2957 13.3928 15.2359C13.6281 15.0467 13.8732 14.8675 14.1281 14.7181C14.1967 14.6782 14.2751 14.6484 14.3438 14.6185C14.5594 14.509 14.7849 14.4094 15.0104 14.3397C15.1085 14.3098 15.1967 14.27 15.2947 14.2501C15.5987 14.1604 15.9026 14.1007 16.2359 14.0708C16.4026 14.0708 16.5791 14.0509 16.7653 14.0509C17.2457 14.0509 17.7163 14.1007 18.1771 14.2102C18.6379 14.3198 19.0889 14.4791 19.5104 14.6782C20.3438 15.0865 21.0987 15.684 21.6967 16.4408C21.9026 16.1919 22.1281 15.9628 22.3536 15.7537C22.4222 15.684 22.4908 15.6243 22.5693 15.5745C22.7359 15.4251 22.9124 15.2857 23.0987 15.1562C23.1869 15.0965 23.2751 15.0367 23.3634 14.987C23.6183 14.8276 23.883 14.6882 24.1477 14.5687C24.2261 14.5388 24.3144 14.5189 24.3928 14.489C24.6085 14.3994 24.8242 14.3297 25.0594 14.27C25.0987 14.27 25.1477 14.2301 25.1967 14.2202Z" fill="#0051D3"/>
<path d="M30.1568 18.1336C30.5685 19.3187 30.5391 21.0414 29.2058 22.3459L22.9117 28.51C22.2352 29.1772 21.1666 29.1772 20.4803 28.51L14.196 22.3459C13.5587 21.7186 13.2156 20.9916 13.0881 20.2846V20.2647C13.0293 19.9859 13.0097 19.707 13.0195 19.4282V19.3983C13.0391 18.8506 13.1568 18.3129 13.3822 17.815C13.392 17.7951 13.3921 17.7751 13.4019 17.7652C13.5097 17.5162 13.647 17.2872 13.8136 17.0681C13.8724 16.9885 13.9411 16.8988 14.0097 16.8192C14.0587 16.7793 14.0979 16.7295 14.1469 16.6798C14.2254 16.6001 14.3038 16.5304 14.3822 16.4607C14.4117 16.4408 14.4313 16.4208 14.4607 16.4009C14.5783 16.3013 14.7058 16.2217 14.843 16.142C14.8626 16.1221 14.892 16.1121 14.9215 16.0922C15.0391 16.0325 15.1568 15.9727 15.2842 15.9229C15.3136 15.913 15.3332 15.8931 15.3626 15.8831C15.4999 15.8333 15.6273 15.7935 15.7646 15.7636L15.8528 15.7337C16.0195 15.7039 16.1862 15.674 16.3626 15.6541C16.4901 15.6441 16.6273 15.6441 16.7646 15.6441C18.3822 15.6441 19.8822 16.4706 20.7744 17.8548C20.892 18.044 21.0685 18.1735 21.2646 18.2432C21.7352 18.4324 22.3332 18.3129 22.6273 17.8548C22.794 17.5959 22.9901 17.3669 23.196 17.1478C23.245 17.098 23.294 17.0382 23.343 16.9984C23.5587 16.7893 23.7842 16.6001 24.0293 16.4408C24.0587 16.4208 24.0979 16.4009 24.1273 16.381C24.3626 16.2316 24.5979 16.1121 24.8528 16.0126C24.9019 15.9827 24.9509 15.9628 25.0097 15.9429C25.294 15.8433 25.5881 15.7536 25.892 15.7138C26.2744 15.6441 26.6568 15.6242 27.0391 15.6541C28.4901 15.7835 29.6568 16.7096 30.1568 18.1336ZM27.794 21.4298C28.0979 21.1211 28.1077 20.6132 27.8038 20.3045C27.4999 19.9859 26.9999 19.9859 26.696 20.2946L21.7842 25.194C21.4803 25.5027 21.4705 26.0105 21.7744 26.3192C21.9313 26.4786 22.1371 26.5582 22.3332 26.5582C22.5391 26.5582 22.7352 26.4885 22.8921 26.3292L27.794 21.4298Z" fill="#FFDA00"/>
<path d="M27.8038 20.3047C28.1077 20.6134 28.0979 21.1213 27.794 21.43L22.892 26.3294C22.7352 26.4887 22.5391 26.5584 22.3332 26.5584C22.1273 26.5584 21.9312 26.4787 21.7744 26.3194C21.4704 26.0107 21.4803 25.5029 21.7842 25.1941L26.6959 20.2947C26.9999 19.986 27.4999 19.986 27.8038 20.3047Z" fill="#0051D3"/>
<path d="M24.657 11.1132C25.2452 12.0393 25.4413 13.1646 25.1962 14.2201C25.1471 14.2201 25.0981 14.26 25.0589 14.2699C24.8236 14.3297 24.6079 14.3994 24.3922 14.489C24.3138 14.5189 24.2256 14.5388 24.1471 14.5687C23.8824 14.6882 23.6177 14.8276 23.3628 14.9869C23.2746 15.0367 23.1864 15.0965 23.0981 15.1562C22.9119 15.2857 22.7354 15.4251 22.5687 15.5744C22.4903 15.6242 22.4217 15.684 22.353 15.7537C22.1275 15.9628 21.9021 16.1918 21.6962 16.4408C21.0981 15.684 20.3432 15.0865 19.5099 14.6782C19.0883 14.479 18.6373 14.3197 18.1766 14.2102C17.7158 14.1006 17.2452 14.0508 16.7648 14.0508C16.5785 14.0508 16.4021 14.0608 16.2354 14.0708C15.9021 14.1006 15.5981 14.1604 15.2942 14.25C15.1962 14.2699 15.1079 14.3098 15.0099 14.3396C14.7844 14.4093 14.5589 14.5089 14.3432 14.6185C14.2746 14.6483 14.1962 14.6782 14.1275 14.718C13.8726 14.8674 13.6275 15.0467 13.3922 15.2359C13.3236 15.2956 13.255 15.3554 13.1962 15.4251C13.0001 15.6043 12.8138 15.7935 12.657 16.0026C12.6275 16.0425 12.5883 16.0624 12.5687 16.1022C12.5491 16.1221 12.5393 16.1421 12.5295 16.162C12.4609 16.2516 12.4021 16.3512 12.3432 16.4408C12.2746 16.5503 12.206 16.6499 12.1471 16.7595C12.0981 16.859 12.0393 16.9686 11.9903 17.0682C11.9413 17.1877 11.8824 17.3072 11.8334 17.4366C11.8138 17.4864 11.7844 17.5362 11.7648 17.5959C11.7452 17.6457 11.7452 17.6955 11.7256 17.7453C11.6864 17.8748 11.6472 18.0042 11.6177 18.1436L11.5295 18.5021V18.532L9.09812 16.152C7.7746 14.8475 7.73538 13.1247 8.15695 11.9397C8.65695 10.5157 9.81382 9.58961 11.2648 9.47011C11.4021 9.46015 11.5393 9.4502 11.6668 9.4502C13.2942 9.4502 14.7942 10.2767 15.6864 11.6709C16.0883 12.3082 17.1275 12.3082 17.5393 11.6709C18.5001 10.1672 20.206 9.32074 21.9511 9.47011C23.0785 9.55974 24.0491 10.1473 24.657 11.1132Z" fill="#0051D3"/>
</svg>
