<svg width="43" height="45" viewBox="0 0 43 45" fill="none" xmlns="http://www.w3.org/2000/svg">
<path d="M43 25.3325C43 30.107 40.9412 34.705 37.3431 38.0188L38.7059 43.3815C38.7745 43.656 38.6961 43.9501 38.4902 44.1462C38.3431 44.2835 38.1471 44.3619 37.951 44.3619C37.8725 44.3619 37.7941 44.3521 37.7255 44.3325L30.2059 42.0972C28.3529 42.6756 26.4216 42.9599 24.4608 42.9599C18.7451 42.9599 13.3137 40.4109 9.80392 36.1168L5.28431 37.4599C5.20588 37.4893 5.13726 37.4991 5.05883 37.4991C4.86275 37.4991 4.66667 37.4207 4.51961 37.2737C4.31373 37.0776 4.22549 36.7933 4.30392 36.5188L5.66667 31.1462C2.05882 27.8325 0 23.2442 0 18.4697C0 8.74425 8.32353 0.842285 18.549 0.842285C25.9902 0.842285 32.4118 5.04817 35.3529 11.0776C40.1471 14.3913 43 19.705 43 25.3325ZM41.4314 25.3325C41.4314 21.0678 39.6176 16.9991 36.4804 14.009C36.549 14.2541 36.6078 14.509 36.6667 14.7639C36.6863 14.8423 36.7059 14.9109 36.7157 14.9795C36.8235 15.4893 36.902 16.009 36.9706 16.5286L37 16.8521C37.049 17.3815 37.0882 17.9207 37.0882 18.4697C37.0882 28.1854 28.7647 36.0972 18.549 36.0972C16.5882 36.0972 14.6569 35.8031 12.8039 35.2246L11.4412 35.6364C14.6569 39.2639 19.4412 41.3913 24.4608 41.3913C26.3333 41.3913 28.1863 41.107 29.9608 40.5286C30.0392 40.4991 30.1177 40.4893 30.1961 40.4893C30.2745 40.4893 30.3529 40.4991 30.4216 40.5188L36.8431 42.4305L35.7059 37.9403C35.6274 37.656 35.7255 37.3521 35.951 37.156C39.4314 34.1168 41.4314 29.8129 41.4314 25.3325ZM35.5196 18.4697C35.5196 17.9109 35.4902 17.3619 35.4216 16.8129C35.402 16.6168 35.3627 16.4403 35.3333 16.2442C35.2843 15.8913 35.2353 15.5384 35.1569 15.1854C35.1176 14.9991 35.049 14.8129 35 14.6168C34.9118 14.2737 34.8333 13.9403 34.7157 13.607C34.6569 13.4207 34.5784 13.2541 34.5098 13.0678C34.3824 12.7344 34.2549 12.4011 34.1078 12.0776C31.4902 6.3913 25.5 2.41091 18.549 2.41091C9.18627 2.41091 1.56863 9.61679 1.56863 18.4697C1.56863 22.9501 3.56862 27.2541 7.05882 30.2933C7.28431 30.4795 7.37255 30.7835 7.30392 31.0776L6.15686 35.5678L9.86274 34.4697L12.5784 33.656C12.6471 33.6364 12.7059 33.6364 12.7745 33.6266H12.8137C12.8922 33.6266 12.9706 33.6364 13.049 33.6658C14.8235 34.2344 16.6765 34.5286 18.549 34.5286C27.902 34.5286 35.5196 27.3227 35.5196 18.4697Z" fill="#0051D3"/>
<path d="M36.4806 14.0088C39.6179 16.999 41.4316 21.0676 41.4316 25.3323C41.4316 29.8127 39.4316 34.1166 35.9512 37.1558C35.7257 37.3519 35.6277 37.6558 35.7061 37.9402L36.8434 42.4304L30.4218 40.5186C30.3532 40.499 30.2747 40.4892 30.1963 40.4892C30.1179 40.4892 30.0394 40.499 29.961 40.5284C28.1865 41.1068 26.3336 41.3911 24.461 41.3911C19.4414 41.3911 14.6571 39.2637 11.4414 35.6362L12.8042 35.2245C14.6571 35.8029 16.5885 36.097 18.5492 36.097C28.7649 36.097 37.0885 28.1853 37.0885 18.4696C37.0885 17.9206 37.0492 17.3813 37.0002 16.8519L36.9708 16.5284C36.9022 16.0088 36.8238 15.4892 36.7159 14.9794C36.7061 14.9107 36.6865 14.8421 36.6669 14.7637C36.6081 14.5088 36.5492 14.2539 36.4806 14.0088Z" fill="#FFDA00"/>
<path d="M35.4213 16.8131C35.4899 17.3621 35.5193 17.9111 35.5193 18.47C35.5193 27.3229 27.9017 34.5288 18.5488 34.5288C16.6762 34.5288 14.8233 34.2347 13.0488 33.666C12.9703 33.6366 12.8919 33.6268 12.8135 33.6268H12.7742C12.7056 33.6366 12.6468 33.6366 12.5782 33.6562L9.86248 34.47L6.15659 35.568L7.30365 31.0778C7.37228 30.7837 7.28404 30.4798 7.05855 30.2935C3.56836 27.2543 1.56836 22.9503 1.56836 18.47C1.56836 9.61701 9.18601 2.41113 18.5488 2.41113C25.4997 2.41113 31.4899 6.39152 34.1076 12.0778C34.2546 12.4013 34.3821 12.7347 34.5095 13.068C34.5782 13.2543 34.6566 13.4209 34.7154 13.6072C34.8331 13.9405 34.9115 14.2739 34.9997 14.617C35.0488 14.8131 35.1174 14.9994 35.1566 15.1856C35.235 15.5386 35.284 15.8915 35.3331 16.2445C35.3625 16.4405 35.4017 16.617 35.4213 16.8131ZM29.7938 23.97C31.3625 22.4602 31.8723 20.2347 31.137 18.166C30.4311 16.1954 28.7154 14.8621 26.6664 14.6954C26.5487 14.6954 26.4311 14.6954 26.3135 14.6954C26.4801 13.4013 26.1958 12.0582 25.4801 10.9405C24.5978 9.5778 23.2056 8.74447 21.5782 8.60721C21.4017 8.59741 21.2252 8.5876 21.0488 8.5876C19.1076 8.5876 17.3135 9.46015 16.1076 10.9503C14.9017 9.46015 13.1076 8.5876 11.1664 8.5876C10.9899 8.5876 10.8135 8.59741 10.637 8.60721C8.58797 8.78368 6.88209 10.1072 6.17621 12.0876C5.44091 14.1562 5.95072 16.3719 7.50954 17.8817L11.088 21.3327C11.3233 22.3229 11.8331 23.2347 12.6076 23.9798L18.8919 30.0484C19.5389 30.6758 20.3723 30.9896 21.1958 30.9896C22.0193 30.9896 22.8625 30.6758 23.4997 30.0484L29.7938 23.9798V23.97Z" fill="white"/>
<path d="M31.1379 18.1659C31.8732 20.2345 31.3634 22.46 29.7947 23.9698L23.5006 30.0384C22.8634 30.6659 22.03 30.9796 21.1967 30.9796C20.3634 30.9796 19.5398 30.6659 18.8928 30.0384L12.6085 23.9698C11.834 23.2247 11.3241 22.3129 11.0889 21.3227L7.51043 17.8718C5.95161 16.362 5.4418 14.1463 6.1771 12.0776C6.88298 10.0972 8.58886 8.77372 10.6379 8.59724C10.8143 8.58744 10.9908 8.57764 11.1673 8.57764C13.1085 8.57764 14.9026 9.45019 16.1085 10.9404C17.3143 9.45019 19.1085 8.57764 21.0496 8.57764C21.2261 8.57764 21.4026 8.58744 21.5791 8.59724C23.2065 8.7345 24.5987 9.56783 25.481 10.9306C26.1967 12.0482 26.481 13.3914 26.3144 14.6855C26.432 14.6855 26.5496 14.6855 26.6673 14.6855C28.7163 14.8521 30.432 16.1855 31.1379 18.1561V18.1659ZM28.7065 22.8423C30.0398 21.558 30.0692 19.8619 29.6575 18.6953C29.1575 17.2933 27.9908 16.3816 26.5398 16.2541C26.1575 16.2247 25.7751 16.2443 25.3928 16.3129C25.0889 16.3521 24.7947 16.4404 24.5104 16.5384C24.4516 16.558 24.4026 16.5776 24.3536 16.607C24.0987 16.7051 23.8634 16.8227 23.6281 16.9698C23.5987 16.9894 23.5594 17.009 23.53 17.0286C23.2849 17.1855 23.0594 17.3718 22.8438 17.5776C22.7947 17.6169 22.7457 17.6757 22.6967 17.7247C22.4908 17.9404 22.2947 18.1659 22.1281 18.4208C21.834 18.8718 21.2359 18.9894 20.7653 18.8031C20.5692 18.7345 20.3928 18.607 20.2751 18.4208C19.383 17.058 17.883 16.2443 16.2653 16.2443C16.1281 16.2443 15.9908 16.2443 15.8634 16.2541C15.6869 16.2737 15.5202 16.3031 15.3536 16.3325L15.2653 16.3619C15.1281 16.3914 15.0006 16.4306 14.8634 16.4796C14.834 16.4796 14.8143 16.509 14.7849 16.5188C14.6575 16.5678 14.5398 16.6267 14.4222 16.6855C14.3928 16.7051 14.3634 16.7149 14.3438 16.7345C14.2065 16.8129 14.0791 16.8914 13.9614 16.9894C13.932 17.009 13.9124 17.0286 13.883 17.0482C13.8045 17.1169 13.7261 17.1855 13.6477 17.2639C13.5987 17.3129 13.5594 17.3619 13.5104 17.4012C13.4418 17.4796 13.3732 17.5678 13.3143 17.6463C13.1477 17.8619 13.0104 18.0874 12.9026 18.3325C12.8928 18.3423 12.8928 18.3619 12.883 18.3816C12.6575 18.8718 12.5398 19.4012 12.5202 19.9404V19.9698C12.5104 20.2443 12.53 20.5188 12.5889 20.7933V20.8129C12.7163 21.509 13.0594 22.2247 13.6967 22.8423L19.981 28.911C20.6673 29.5678 21.7359 29.5678 22.4124 28.911L28.7065 22.8423ZM24.6967 14.8423C24.9418 13.8031 24.7457 12.6953 24.1575 11.7835C23.5496 10.8325 22.5791 10.2541 21.4516 10.1659C19.7065 10.0188 18.0006 10.8521 17.0398 12.3325C16.6281 12.96 15.5889 12.96 15.1869 12.3325C14.2947 10.96 12.7947 10.1463 11.1673 10.1463C11.0398 10.1463 10.9026 10.1463 10.7653 10.1659C9.31435 10.2835 8.15748 11.1953 7.65748 12.5972C7.23591 13.7639 7.27513 15.46 8.59866 16.7443L11.03 19.0874V19.058L11.1183 18.7051C11.1477 18.5678 11.1869 18.4404 11.2261 18.3129C11.2457 18.2639 11.2457 18.2149 11.2653 18.1659C11.2849 18.107 11.3143 18.058 11.334 18.009C11.383 17.8816 11.4418 17.7639 11.4908 17.6463C11.5398 17.5482 11.5987 17.4404 11.6477 17.3423C11.7065 17.2345 11.7751 17.1365 11.8438 17.0286C11.9026 16.9404 11.9614 16.8423 12.03 16.7541C12.0398 16.7345 12.0496 16.7149 12.0692 16.6953C12.0889 16.6561 12.1281 16.6365 12.1575 16.5972C12.3143 16.3914 12.5006 16.2051 12.6967 16.0286C12.7555 15.96 12.8242 15.9012 12.8928 15.8423C13.1281 15.6561 13.3732 15.4796 13.6281 15.3325C13.6967 15.2933 13.7751 15.2639 13.8438 15.2345C14.0594 15.1267 14.2849 15.0286 14.5104 14.96C14.6085 14.9306 14.6967 14.8914 14.7947 14.8718C15.0987 14.7835 15.4026 14.7247 15.7359 14.6953C15.9026 14.6953 16.0791 14.6757 16.2653 14.6757C16.7457 14.6757 17.2163 14.7247 17.6771 14.8325C18.1379 14.9404 18.5889 15.0972 19.0104 15.2933C19.8438 15.6953 20.5987 16.2835 21.1967 17.0286C21.4026 16.7835 21.6281 16.558 21.8536 16.3521C21.9222 16.2835 21.9908 16.2247 22.0693 16.1757C22.2359 16.0286 22.4124 15.8914 22.5987 15.7639C22.6869 15.7051 22.7751 15.6463 22.8634 15.5972C23.1183 15.4404 23.383 15.3031 23.6477 15.1855C23.7261 15.1561 23.8144 15.1365 23.8928 15.107C24.1085 15.0188 24.3242 14.9502 24.5594 14.8914C24.5987 14.8914 24.6477 14.8521 24.6967 14.8423Z" fill="#0051D3"/>
<path d="M29.6568 18.6951C30.0685 19.8618 30.0391 21.5579 28.7058 22.8422L22.4117 28.9108C21.7352 29.5677 20.6666 29.5677 19.9803 28.9108L13.696 22.8422C13.0587 22.2245 12.7156 21.5089 12.5881 20.8128V20.7932C12.5293 20.5187 12.5097 20.2442 12.5195 19.9696V19.9402C12.5391 19.401 12.6568 18.8716 12.8822 18.3814C12.892 18.3618 12.8921 18.3422 12.9019 18.3324C13.0097 18.0873 13.147 17.8618 13.3136 17.6461C13.3724 17.5677 13.4411 17.4794 13.5097 17.401C13.5587 17.3618 13.5979 17.3128 13.6469 17.2638C13.7254 17.1853 13.8038 17.1167 13.8822 17.0481C13.9117 17.0285 13.9313 17.0089 13.9607 16.9893C14.0783 16.8912 14.2058 16.8128 14.343 16.7343C14.3626 16.7147 14.392 16.7049 14.4215 16.6853C14.5391 16.6265 14.6568 16.5677 14.7842 16.5187C14.8136 16.5089 14.8332 16.4893 14.8626 16.4794C14.9999 16.4304 15.1273 16.3912 15.2646 16.3618L15.3528 16.3324C15.5195 16.303 15.6862 16.2736 15.8626 16.254C15.9901 16.2442 16.1273 16.2442 16.2646 16.2442C17.8822 16.2442 19.3822 17.0579 20.2744 18.4206C20.392 18.6069 20.5685 18.7343 20.7646 18.803C21.2352 18.9893 21.8332 18.8716 22.1273 18.4206C22.294 18.1657 22.4901 17.9402 22.696 17.7245C22.745 17.6755 22.794 17.6167 22.843 17.5775C23.0587 17.3716 23.2842 17.1853 23.5293 17.0285C23.5587 17.0089 23.5979 16.9893 23.6273 16.9696C23.8626 16.8226 24.0979 16.7049 24.3528 16.6069C24.4019 16.5775 24.4509 16.5579 24.5097 16.5383C24.794 16.4402 25.0881 16.352 25.3921 16.3128C25.7744 16.2442 26.1568 16.2245 26.5391 16.254C27.9901 16.3814 29.1568 17.2932 29.6568 18.6951ZM27.294 21.9402C27.5979 21.6363 27.6077 21.1363 27.3038 20.8324C26.9999 20.5187 26.4999 20.5187 26.196 20.8226L21.2842 25.6461C20.9803 25.95 20.9705 26.45 21.2744 26.754C21.4313 26.9108 21.6371 26.9893 21.8332 26.9893C22.0391 26.9893 22.2352 26.9206 22.3921 26.7638L27.294 21.9402Z" fill="#FFDA00"/>
<path d="M27.3038 20.8322C27.6077 21.1362 27.5979 21.6362 27.294 21.9401L22.392 26.7636C22.2352 26.9205 22.0391 26.9891 21.8332 26.9891C21.6273 26.9891 21.4312 26.9107 21.2744 26.7538C20.9704 26.4499 20.9803 25.9499 21.2842 25.646L26.1959 20.8224C26.4999 20.5185 26.9999 20.5185 27.3038 20.8322Z" fill="#0051D3"/>
<path d="M24.1569 11.7833C24.7452 12.695 24.9413 13.8029 24.6962 14.8421C24.6472 14.8421 24.5981 14.8813 24.5589 14.8911C24.3236 14.9499 24.1079 15.0185 23.8922 15.1068C23.8138 15.1362 23.7256 15.1558 23.6472 15.1852C23.3824 15.3029 23.1177 15.4401 22.8628 15.597C22.7746 15.646 22.6864 15.7048 22.5981 15.7636C22.4119 15.8911 22.2354 16.0283 22.0687 16.1754C21.9903 16.2244 21.9217 16.2833 21.853 16.3519C21.6275 16.5578 21.4021 16.7833 21.1962 17.0283C20.5981 16.2833 19.8432 15.695 19.0099 15.2931C18.5883 15.097 18.1373 14.9401 17.6766 14.8323C17.2158 14.7244 16.7452 14.6754 16.2648 14.6754C16.0785 14.6754 15.9021 14.6852 15.7354 14.695C15.4021 14.7244 15.0981 14.7833 14.7942 14.8715C14.6962 14.8911 14.6079 14.9303 14.5099 14.9597C14.2844 15.0283 14.0589 15.1264 13.8432 15.2342C13.7746 15.2636 13.6962 15.2931 13.6275 15.3323C13.3726 15.4793 13.1275 15.6558 12.8922 15.8421C12.8236 15.9009 12.755 15.9597 12.6962 16.0283C12.5001 16.2048 12.3138 16.3911 12.157 16.597C12.1275 16.6362 12.0883 16.6558 12.0687 16.695C12.0491 16.7146 12.0393 16.7342 12.0295 16.7538C11.9609 16.8421 11.9021 16.9401 11.8432 17.0283C11.7746 17.1362 11.706 17.2342 11.6471 17.3421C11.5981 17.4401 11.5393 17.548 11.4903 17.646C11.4413 17.7636 11.3824 17.8813 11.3334 18.0087C11.3138 18.0578 11.2844 18.1068 11.2648 18.1656C11.2452 18.2146 11.2452 18.2636 11.2256 18.3127C11.1864 18.4401 11.1472 18.5676 11.1177 18.7048L11.0295 19.0578V19.0872L8.59812 16.744C7.2746 15.4597 7.23538 13.7636 7.65695 12.597C8.15695 11.195 9.31382 10.2833 10.7648 10.1656C10.9021 10.1558 11.0393 10.146 11.1668 10.146C12.7942 10.146 14.2942 10.9597 15.1864 12.3323C15.5883 12.9597 16.6275 12.9597 17.0393 12.3323C18.0001 10.8519 19.706 10.0185 21.4511 10.1656C22.5785 10.2538 23.5491 10.8323 24.1569 11.7833Z" fill="#0051D3"/>
</svg>
