<?xml version="1.0" encoding="utf-8"?>
<!-- Generator: Adobe Illustrator 27.0.0, SVG Export Plug-In . SVG Version: 6.00 Build 0)  -->
<svg version="1.1" id="Layer_1" xmlns="http://www.w3.org/2000/svg" xmlns:xlink="http://www.w3.org/1999/xlink" x="0px" y="0px"
	 viewBox="0 0 414 113" style="enable-background:new 0 0 414 113;" xml:space="preserve">
<style type="text/css">
	.st0{fill:#3EB489;}
	.st1{fill:#FF7F50;}
</style>
<g>
	<g>
		<g>
			<path class="st0" d="M0.1,0.9L0.1,0.9C0.1,13.5,6.5,25.2,17,32l39.9,26V37.8L0.1,0.9z"/>
			<polygon class="st0" points="0.1,28.5 0.1,48.8 0.1,56.3 0.1,76.4 20,89.5 56.7,113.2 56.7,93.1 20,69.3 20,61.8 56.7,85.5 
				56.7,65.5 20,41.7 			"/>
		</g>
		<polygon class="st1" points="64.1,37.9 64.1,58 100.7,34.3 100.7,41.8 64.1,65.6 64.1,85.8 100.7,61.9 120.8,48.8 120.8,28.7 
			120.8,21.2 120.8,11.1 120.8,1 		"/>
		<path class="st1" d="M119.1,67.6c-8.4-1-17,1-24.3,5.6l-6.6,4.2L64.1,93.2v9.9v10.1l33.3-21.6l32.7-21
			C126.6,69.1,123,68.1,119.1,67.6z"/>
	</g>
	<g>
		<path class="st0" d="M152.6,92.2c-2.1,0.8-3.2,0.1-3.2-2V42.9h-17.8V31.7H180v11.2h-17.8v45.8L152.6,92.2z"/>
		<path class="st0" d="M183.3,92.2c-2,0.7-3.2,0.1-3.2-2v-43h11.5v3.3c2.9-2.5,6.7-4.1,11.1-4.1c1.6,0,3.6,0.2,5.4,0.5l-0.8,11.3
			c-1.7-0.3-3.4-0.5-4.8-0.5c-4.8,0-9.5,3-9.8,7.9v23.2L183.3,92.2z"/>
		<path class="st0" d="M210.9,41V27.8h13.8V41H210.9z M214.6,92.2c-2,0.7-3.2,0.1-3.2-2V47.9h12.7v40.9L214.6,92.2z"/>
		<path class="st0" d="M233.6,106.6c-2,0.7-3.2,0.1-3.2-2V47.2h11.5v3c2.7-2.3,6.2-3.7,10.4-3.7c10.4,0,18.9,5.7,18.9,19.2v7
			c0,13.5-8.5,19.2-18.9,19.2c-3.6,0-6.7-1.1-9.2-2.8v14.2L233.6,106.6z M258.5,65.2c0-5.1-3.3-7.5-7.7-7.5c-4.3,0-7.6,3-7.7,7.9
			v6.6c0,5.1,3.3,8.2,7.7,8.2c4.4,0,7.7-2.4,7.7-7.5V65.2z"/>
		<path class="st1" d="M277.5,54.5V40.9h13.6v13.6H277.5z M277.5,81.7V68.1h13.6v13.6H277.5z"/>
		<path class="st1" d="M317.3,92.4c-11,0-20-5.5-20-18.8v-8.3c0-13.3,9-18.8,20-18.8c10.1,0,18.5,4.5,19.8,15.4l-12.7,1
			c-0.8-3.6-3.4-5.1-7.1-5.1c-4.2,0-7.3,2.3-7.3,7.1v9.1c0,4.8,3.2,7.1,7.3,7.1c3.7,0,6.4-1.4,7.1-5.1l12.7,1
			C335.8,87.9,327.4,92.4,317.3,92.4z"/>
		<path class="st1" d="M372.9,92.1c-2,0.6-3,0.2-3.3-1.5l-0.5-3c-2.8,2.7-6.6,4.4-11.1,4.4c-10.4,0-18.9-5.7-18.9-19.1v-7.3
			c0-13.5,8.5-19.1,18.9-19.1c4.2,0,7.7,1.4,10.4,3.8v-3h11.5v32.5l1.7,9.7L372.9,92.1z M367.2,65.7c-0.2-4.9-3.4-7.9-7.7-7.9
			c-4.5,0-7.7,2.4-7.7,7.6v7.8c0,5.1,3.3,7.6,7.7,7.6c4.5,0,7.7-3.2,7.7-8.3V65.7z"/>
		<path class="st1" d="M388.5,92.2c-2,0.7-3.2,0.1-3.2-2v-43h11.5v3.3c2.9-2.5,6.7-4.1,11.1-4.1c1.6,0,3.6,0.2,5.4,0.5l-0.8,11.3
			c-1.7-0.3-3.4-0.5-4.8-0.5c-4.8,0-9.5,3-9.8,7.9v23.2L388.5,92.2z"/>
	</g>
</g>
</svg>
