<?xml version="1.0" encoding="utf-8"?>
<!-- Generator: Adobe Illustrator 27.0.0, SVG Export Plug-In . SVG Version: 6.00 Build 0)  -->
<svg version="1.1" id="Layer_1" xmlns="http://www.w3.org/2000/svg" xmlns:xlink="http://www.w3.org/1999/xlink" x="0px" y="0px"
	 viewBox="0 0 400 113" style="enable-background:new 0 0 400 113;" xml:space="preserve">
<style type="text/css">
	.st0{fill:#FFFFFF;}
</style>
<g>
	<g>
		<g>
			<path class="st0" d="M0,0L0,0c0,12.65,6.37,24.33,16.9,31.09l39.88,25.97V36.98L0,0z"/>
			<polygon class="st0" points="0,27.62 0,47.89 0,55.42 0,75.51 19.99,88.64 56.68,112.39 56.68,92.21 19.99,68.46 19.99,60.93 
				56.68,84.68 56.68,64.6 19.99,40.84 			"/>
		</g>
		<polygon class="st0" points="64.02,37.02 64.02,57.2 100.61,33.44 100.61,40.97 64.02,64.73 64.02,84.91 100.61,61.06 
			120.79,47.93 120.79,27.84 120.79,20.31 120.79,10.27 120.79,0.13 		"/>
		<path class="st0" d="M119.06,66.76c-8.4-0.97-16.99,0.97-24.33,5.6l-6.57,4.25L64.02,92.34v9.95v10.14L97.33,90.8l32.73-21.05
			C126.59,68.2,122.92,67.24,119.06,66.76z"/>
	</g>
	<g>
		<path class="st0" d="M152.65,91.59c-2.13,0.76-3.2,0.08-3.2-2.06V42.1h-17.87V30.84h48.67V42.1h-17.87v46.08L152.65,91.59z"/>
		<path class="st0" d="M183.44,91.59c-2.06,0.69-3.2,0.08-3.2-2.06V46.36h11.56v3.34c2.89-2.51,6.69-4.1,11.18-4.1
			c1.59,0,3.65,0.23,5.4,0.53l-0.76,11.33c-1.67-0.3-3.42-0.45-4.79-0.45c-4.87,0-9.58,2.96-9.81,7.91v23.35L183.44,91.59z"/>
		<path class="st0" d="M210.97,40.12V26.89h13.84v13.23C224.81,40.12,210.97,40.12,210.97,40.12z M214.7,91.59
			c-2.06,0.69-3.2,0.08-3.2-2.06V47.11h12.77v41.13L214.7,91.59z"/>
		<path class="st0" d="M233.63,106.05c-2.06,0.69-3.2,0.08-3.2-2.06V46.36h11.56v2.96c2.73-2.28,6.24-3.73,10.5-3.73
			c10.42,0,19.01,5.71,19.01,19.31v7c0,13.61-8.59,19.31-19.01,19.31c-3.65,0-6.77-1.06-9.28-2.81v14.29L233.63,106.05z
			 M258.72,64.53c0-5.1-3.34-7.53-7.75-7.53c-4.34,0-7.61,2.96-7.75,7.91v6.61c0,5.17,3.34,8.28,7.75,8.28
			c4.41,0,7.75-2.43,7.75-7.53V64.53z"/>
		<path class="st0" d="M277.57,53.72V40.04h13.68v13.68H277.57z M277.57,81.1V67.42h13.68V81.1H277.57z"/>
		<path class="st0" d="M325.71,90.3h-10.57c-8.14,0-11.71-3.88-11.71-11.48V58.37h-6.85V47.11h6.85v-9.36l9.58-3.34
			c2.06-0.69,3.2-0.08,3.2,2.06v10.65h9.28v11.26h-9.28v19.01c0,1.22,0.84,1.67,2.06,1.67H327L325.71,90.3z"/>
		<path class="st0" d="M347.92,91.83c-11.1,0-20.15-5.55-20.15-18.93v-8.36c0-13.38,9.05-18.93,20.15-18.93
			c11.1,0,20.15,5.55,20.15,18.93v8.59h-27.53v0.84c0,4.87,3.2,7.15,7.38,7.15c3.73,0,6.85-1.67,7.45-4.63l12.7,0.98
			C366.62,85.97,359.24,91.83,347.92,91.83z M340.54,63.08h14.75c0-4.26-3.2-6.77-7.38-6.77c-4.18,0-7.38,2.43-7.38,6.38
			L340.54,63.08L340.54,63.08z"/>
		<path class="st0" d="M375.06,91.59c-2.06,0.69-3.2,0.08-3.2-2.06V46.36h11.56v3.34c2.89-2.51,6.69-4.1,11.18-4.1
			c1.59,0,3.65,0.23,5.4,0.53l-0.76,11.33c-1.67-0.3-3.42-0.45-4.79-0.45c-4.87,0-9.58,2.96-9.81,7.91v23.35L375.06,91.59z"/>
	</g>
</g>
</svg>
