<svg width="24" height="24" viewBox="0 0 24 24" fill="none" xmlns="http://www.w3.org/2000/svg">
<path fill-rule="evenodd" clip-rule="evenodd" d="M5 7C4.44772 7 4 7.44772 4 8C4 8.55228 4.44772 9 5 9C5.55228 9 6 8.55228 6 8C6 7.44772 5.55228 7 5 7ZM2 8C2 6.34315 3.34315 5 5 5C6.65685 5 8 6.34315 8 8C8 9.65685 6.65685 11 5 11C3.34315 11 2 9.65685 2 8ZM12 7C11.4477 7 11 7.44772 11 8C11 8.55228 11.4477 9 12 9C12.5523 9 13 8.55228 13 8C13 7.44772 12.5523 7 12 7ZM9 8C9 6.34315 10.3431 5 12 5C13.6569 5 15 6.34315 15 8C15 9.65685 13.6569 11 12 11C10.3431 11 9 9.65685 9 8ZM16 8C16 6.34315 17.3431 5 19 5C20.6569 5 22 6.34315 22 8C22 9.65685 20.6569 11 19 11C17.3431 11 16 9.65685 16 8ZM19 7C18.4477 7 18 7.44772 18 8C18 8.55228 18.4477 9 19 9C19.5523 9 20 8.55228 20 8C20 7.44772 19.5523 7 19 7ZM1 15.7C1 13.6565 2.65655 12 4.7 12H6V14H4.7C3.76112 14 3 14.7611 3 15.7C3 16.1418 3.35817 16.5 3.8 16.5H6V18.5H3.8C2.2536 18.5 1 17.2464 1 15.7ZM7.5 15.7C7.5 13.6565 9.15655 12 11.2 12H12.8C14.8435 12 16.5 13.6565 16.5 15.7C16.5 17.2464 15.2464 18.5 13.7 18.5H10.3C8.7536 18.5 7.5 17.2464 7.5 15.7ZM11.2 14C10.2611 14 9.5 14.7611 9.5 15.7C9.5 16.1418 9.85817 16.5 10.3 16.5H13.7C14.1418 16.5 14.5 16.1418 14.5 15.7C14.5 14.7611 13.7389 14 12.8 14H11.2ZM18 12H19.3C21.3435 12 23 13.6565 23 15.7C23 17.2464 21.7464 18.5 20.2 18.5H18V16.5H20.2C20.6418 16.5 21 16.1418 21 15.7C21 14.7611 20.2389 14 19.3 14H18V12Z" fill="black"/>
</svg>
