<svg width="24" height="24" viewBox="0 0 24 24" fill="none" xmlns="http://www.w3.org/2000/svg">
<path d="M3.39445 7H2L3.81063 14.2425C3.92193 14.6877 4.32191 15 4.78078 15L11 15L8 22H10.259C11.3356 22 12.3296 21.4231 12.8638 20.4884L16 15H20.75C21.4404 15 22 14.4404 22 13.75C22 11.6789 20.3211 10 18.25 10H7L5.8906 8.3359C5.3342 7.5013 4.39751 7 3.39445 7Z" stroke="black" stroke-width="2" stroke-linejoin="round"/>
<path d="M8 2L10 7H15L12.8739 3.45651C12.3317 2.5529 11.3552 2 10.3014 2H8Z" stroke="black" stroke-width="2" stroke-linejoin="round"/>
</svg>
