<svg width="22" height="14" viewBox="0 0 22 14" fill="none" xmlns="http://www.w3.org/2000/svg">
<path d="M4.00049 -0.00634766C2.34363 -0.00634766 1.00049 1.3368 1.00049 2.99365C1.00049 4.65051 2.34363 5.99365 4.00049 5.99365C5.65734 5.99365 7.00049 4.65051 7.00049 2.99365C7.00049 1.3368 5.65734 -0.00634766 4.00049 -0.00634766Z" fill="#0051D3"/>
<path d="M11.0005 -0.00634766C9.34363 -0.00634766 8.00049 1.3368 8.00049 2.99365C8.00049 4.65051 9.34363 5.99365 11.0005 5.99365C12.6573 5.99365 14.0005 4.65051 14.0005 2.99365C14.0005 1.3368 12.6573 -0.00634766 11.0005 -0.00634766Z" fill="#FFDA00"/>
<path d="M21.0005 2.99365C21.0005 1.3368 19.6573 -0.00634766 18.0005 -0.00634766C16.3436 -0.00634766 15.0005 1.3368 15.0005 2.99365C15.0005 4.65051 16.3436 5.99365 18.0005 5.99365C19.6573 5.99365 21.0005 4.65051 21.0005 2.99365Z" fill="#0051D3"/>
<g opacity="0.4">
<path d="M6.35392 13.094C6.48151 13.2504 6.40185 13.4937 6.2 13.4937H2.8C1.2536 13.4937 0 12.24 0 10.6937C0 8.6502 1.65655 6.99365 3.7 6.99365H5.3C5.3758 6.99365 5.45108 6.99593 5.52575 7.00043C6.03851 7.03129 6.29489 7.04672 6.42842 7.28494C6.56194 7.52316 6.39061 7.8452 6.04795 8.48929C5.69819 9.14671 5.5 9.89704 5.5 10.6937C5.5 11.604 5.82012 12.4396 6.35392 13.094Z" fill="#0051D3"/>
<path d="M6.50016 10.6937C6.50016 8.6502 8.15671 6.99365 10.2002 6.99365H11.8002C13.8436 6.99365 15.5002 8.6502 15.5002 10.6937C15.5002 12.24 14.2466 13.4937 12.7002 13.4937H9.30016C7.75376 13.4937 6.50016 12.24 6.50016 10.6937Z" fill="#FFDA00"/>
<path d="M15.7993 13.4937C15.5975 13.4937 15.5178 13.2504 15.6454 13.094C16.1792 12.4396 16.4993 11.604 16.4993 10.6937C16.4993 9.89704 16.3012 9.14671 15.9514 8.48929C15.6087 7.8452 15.4374 7.52316 15.5709 7.28494C15.7045 7.04672 15.9608 7.03129 16.4736 7.00043C16.5483 6.99593 16.6235 6.99365 16.6993 6.99365H18.2993C20.3428 6.99365 21.9993 8.6502 21.9993 10.6937C21.9993 12.24 20.7457 13.4937 19.1993 13.4937H15.7993Z" fill="#0051D3"/>
</g>
</svg>
