<svg width="24" height="25" viewBox="0 0 24 25" fill="none" xmlns="http://www.w3.org/2000/svg">
<path opacity="0.8" d="M12.9002 3.01374L12.8702 3.08374L9.9702 9.81374H7.1202C6.4402 9.81374 5.8002 9.94374 5.2002 10.2037L6.9502 6.02374L6.9902 5.93374L7.0502 5.77374C7.0802 5.70374 7.1002 5.64374 7.1302 5.59374C8.4402 2.56374 9.9202 1.87374 12.9002 3.01374Z" fill="#0051D3"/>
<path d="M18.2902 10.0137C17.8402 9.88367 17.3702 9.81367 16.8802 9.81367H9.97021L12.8702 3.08367L12.9002 3.01367C13.0402 3.06367 13.1902 3.13367 13.3402 3.18367L15.5502 4.11367C16.7802 4.62367 17.6402 5.15367 18.1702 5.79367C18.2602 5.91367 18.3402 6.02367 18.4202 6.15367C18.5102 6.29367 18.5802 6.43367 18.6202 6.58367C18.6602 6.67367 18.6902 6.75367 18.7102 6.84367C18.9702 7.69367 18.8102 8.72367 18.2902 10.0137Z" fill="#ABC6F0"/>
<path opacity="0.4" d="M21.7602 14.6935V16.6435C21.7602 16.8435 21.7502 17.0435 21.7402 17.2335C21.5502 20.7335 19.6002 22.4935 15.9002 22.4935H8.10023C7.85023 22.4935 7.62023 22.4735 7.39023 22.4435C4.21023 22.2335 2.51023 20.5335 2.29023 17.3535C2.26023 17.1135 2.24023 16.8835 2.24023 16.6435V14.6935C2.24023 12.6835 3.46023 10.9535 5.20023 10.2035C5.80023 9.94348 6.44023 9.81348 7.12023 9.81348H16.8802C17.3702 9.81348 17.8402 9.88348 18.2902 10.0135C20.2902 10.6235 21.7602 12.4835 21.7602 14.6935Z" fill="#FFDA00"/>
<path opacity="0.6" d="M6.95023 6.02344L5.20023 10.2034C3.46023 10.9534 2.24023 12.6834 2.24023 14.6934V11.7634C2.24023 8.92344 4.26023 6.55344 6.95023 6.02344Z" fill="#0051D3"/>
<path opacity="0.6" d="M21.76 11.7635V14.6935C21.76 12.4835 20.29 10.6235 18.29 10.0135C18.81 8.7235 18.97 7.6935 18.71 6.8435C18.69 6.7535 18.66 6.6735 18.62 6.5835C20.49 7.5535 21.76 9.5235 21.76 11.7635Z" fill="#0051D3"/>
<path d="M12 11.4937L13.5282 14.1006L16.7553 14.6031L14.4727 16.7168L14.9389 19.6342L12 18.3337L9.06107 19.6342L9.52725 16.7168L7.24472 14.6031L10.4718 14.1006L12 11.4937Z" fill="#0051D3"/>
</svg>
