<svg width="24" height="25" viewBox="0 0 24 25" fill="none" xmlns="http://www.w3.org/2000/svg">
<path d="M2.71422 23.4583L21.5714 23.4583C22.5181 23.4583 23.2856 22.6907 23.2856 21.744L23.2856 2.88682C23.2856 1.94005 22.5181 1.17254 21.5714 1.17254L2.71422 1.17254C1.76744 1.17254 0.999929 1.94005 0.999929 2.88682L0.999929 21.744C0.999929 22.6907 1.76744 23.4583 2.71422 23.4583Z" fill="#0051D3" stroke="#0051D3" stroke-width="1.5" stroke-linecap="round" stroke-linejoin="round"/>
<path d="M12.1431 16.6011V23.4582" stroke="#ABC6F0" stroke-width="1.5" stroke-linecap="round" stroke-linejoin="round"/>
<path d="M17.2857 11.4584C17.2857 12.8223 16.7439 14.1304 15.7794 15.0949C14.8149 16.0594 13.5068 16.6012 12.1429 16.6012C10.7789 16.6012 9.47078 16.0594 8.50631 15.0949C7.54184 14.1304 7 12.8223 7 11.4584V7.70407C6.99971 7.55841 7.03655 7.41507 7.10703 7.28759C7.17752 7.16012 7.27933 7.05271 7.40286 6.9755C7.52638 6.8983 7.66755 6.85385 7.81302 6.84635C7.95849 6.83885 8.10348 6.86855 8.23429 6.93265L12.1429 8.88693L16.0514 6.93265C16.1822 6.86855 16.3272 6.83885 16.4727 6.84635C16.6182 6.85385 16.7593 6.8983 16.8829 6.9755C17.0064 7.05271 17.1082 7.16012 17.1787 7.28759C17.2492 7.41507 17.286 7.55841 17.2857 7.70407V11.4584Z" fill="#FFDA00" stroke="#FFDA00" stroke-width="1.5" stroke-linecap="round" stroke-linejoin="round"/>
<path d="M12.1431 23.4583L16.4288 19.1726" stroke="#ABC6F0" stroke-width="1.5" stroke-linecap="round" stroke-linejoin="round"/>
<path d="M12.1426 23.4583L7.85693 19.1726" stroke="#ABC6F0" stroke-width="1.5" stroke-linecap="round" stroke-linejoin="round"/>
</svg>
