<svg width="24" height="25" viewBox="0 0 24 25" fill="none" xmlns="http://www.w3.org/2000/svg">
<g clip-path="url(#clip0_1273_1919)">
<path opacity="0.4" fill-rule="evenodd" clip-rule="evenodd" d="M1.00001 6.49365C0.692074 6.49365 0.401311 6.63552 0.211804 6.87824C0.0222965 7.12096 -0.0448187 7.43745 0.0298665 7.73619L1.8405 14.9787C2.06308 15.8691 2.86305 16.4937 3.78079 16.4937L8.48347 16.4937L6.08086 22.0997C5.94845 22.4087 5.98012 22.7635 6.16517 23.0441C6.35021 23.3248 6.66387 23.4937 7.00001 23.4937H9.25904C10.6945 23.4937 12.0198 22.7245 12.732 21.4782L15.5803 16.4937H19.75C20.9927 16.4937 22 15.4863 22 14.2437C22 11.6203 19.8734 9.49365 17.25 9.49365H6.53519L5.72266 8.27485C4.9808 7.16206 3.73187 6.49365 2.39446 6.49365H1.00001Z" fill="#0051D3"/>
<path fill-rule="evenodd" clip-rule="evenodd" d="M7 1.49365C6.66818 1.49365 6.35797 1.65825 6.17194 1.93302C5.98591 2.2078 5.94829 2.55695 6.07153 2.86504L8.07153 7.86504C8.22339 8.2447 8.5911 8.49365 9 8.49365H14C14.3603 8.49365 14.6927 8.29986 14.8702 7.98635C15.0477 7.67284 15.0429 7.28809 14.8575 6.97916L12.7314 3.43567C12.0085 2.23085 10.7065 1.49365 9.30143 1.49365H7Z" fill="#0051D3"/>
<path fill-rule="evenodd" clip-rule="evenodd" d="M25.118 4.66944C23.9531 6.41611 24.3971 8.77697 26.1047 9.91579C27.8123 11.0546 30.1625 10.5573 31.3274 8.81058C31.9098 7.93724 31.6878 6.75681 30.834 6.1874C29.9802 5.61799 28.8051 5.86667 28.2227 6.74001L25.118 4.66944Z" fill="#0047A0"/>
</g>
<defs>
<clipPath id="clip0_1273_1919">
<rect width="24" height="24" fill="white" transform="translate(0 0.493652)"/>
</clipPath>
</defs>
</svg>
