<svg width="24" height="24" viewBox="0 0 24 24" fill="none" xmlns="http://www.w3.org/2000/svg">
<path d="M21.6533 6.12844V8.54844C21.6533 10.1284 20.9867 11.1284 19.9333 11.1284H17.6533V4.13844C17.6533 3.02844 18.26 2.12844 19 2.12844C19.7267 2.13844 20.3933 2.57844 20.8733 3.29844C21.3533 4.02844 21.6533 5.02844 21.6533 6.12844Z" fill="#0051D3"/>
<path opacity="0.4" d="M2 7.10142V21.3854C2 22.2322 3.0575 22.7118 3.8 22.2016L5.72375 20.8957C6.17375 20.5896 6.80375 20.6304 7.20875 20.9977L9.07625 22.7016C9.515 23.0995 10.235 23.0995 10.6737 22.7016L12.5637 20.9875C12.9575 20.6304 13.5875 20.5896 14.0263 20.8957L15.95 22.2016C16.6925 22.7016 17.75 22.222 17.75 21.3854V4.04057C17.75 2.91826 18.2625 2 19.5 2H7.625H6.5C3.125 2 2 3.82631 2 6.08114V7.10142Z" fill="#0051D3"/>
<path d="M13.8415 10.75H5.34598C4.71268 10.75 4.1875 10.41 4.1875 10C4.1875 9.59 4.71268 9.25 5.34598 9.25H13.8415C14.4748 9.25 15 9.59 15 10C15 10.41 14.4748 10.75 13.8415 10.75Z" fill="#FFDA00"/>
<path d="M13.8415 13.5H5.34598C4.71268 13.5 4.1875 13.16 4.1875 12.75C4.1875 12.34 4.71268 12 5.34598 12H13.8415C14.4748 12 15 12.34 15 12.75C15 13.16 14.4748 13.5 13.8415 13.5Z" fill="#FFDA00"/>
<path d="M13.8415 16.25H5.34598C4.71268 16.25 4.1875 15.91 4.1875 15.5C4.1875 15.09 4.71268 14.75 5.34598 14.75H13.8415C14.4748 14.75 15 15.09 15 15.5C15 15.91 14.4748 16.25 13.8415 16.25Z" fill="#FFDA00"/>
</svg>
