<svg width="24" height="25" viewBox="0 0 24 25" fill="none" xmlns="http://www.w3.org/2000/svg">
<path d="M6.70001 18.6365H4.15002C2.72002 18.6365 2 17.9165 2 16.4865V4.7865C2 3.3565 2.72002 2.63647 4.15002 2.63647H8.45001C9.88001 2.63647 10.6 3.3565 10.6 4.7865V6.63647" fill="#ABC6F0"/>
<path d="M6.70001 18.6365H4.15002C2.72002 18.6365 2 17.9165 2 16.4865V4.7865C2 3.3565 2.72002 2.63647 4.15002 2.63647H8.45001C9.88001 2.63647 10.6 3.3565 10.6 4.7865V6.63647" stroke="#ABC6F0" stroke-width="2" stroke-miterlimit="10" stroke-linecap="round" stroke-linejoin="round"/>
<path d="M13.3999 6.63647V4.7865C13.3999 3.3565 14.1199 2.63647 15.5499 2.63647H19.8499C21.2799 2.63647 21.9999 3.3565 21.9999 4.7865V16.4865C21.9999 17.9165 21.2799 18.6365 19.8499 18.6365H17.3699" fill="#ABC6F0"/>
<path d="M13.3999 6.63647V4.7865C13.3999 3.3565 14.1199 2.63647 15.5499 2.63647H19.8499C21.2799 2.63647 21.9999 3.3565 21.9999 4.7865V16.4865C21.9999 17.9165 21.2799 18.6365 19.8499 18.6365H17.3699" stroke="#ABC6F0" stroke-width="2" stroke-miterlimit="10" stroke-linecap="round" stroke-linejoin="round"/>
<path d="M17.3702 9.05646V20.2165C17.3702 21.8265 16.5702 22.6365 14.9602 22.6365H9.12018C7.51018 22.6365 6.7002 21.8265 6.7002 20.2165V9.05646C6.7002 7.44646 7.51018 6.63647 9.12018 6.63647H14.9602C16.5702 6.63647 17.3702 7.44646 17.3702 9.05646Z" fill="#0051D3" stroke="#0051D3" stroke-width="2" stroke-miterlimit="10" stroke-linecap="round" stroke-linejoin="round"/>
<path d="M13 20.6365C13 20.0842 12.5523 19.6365 12 19.6365C11.4477 19.6365 11 20.0842 11 20.6365H13ZM13 23.6365V20.6365H11V23.6365H13Z" fill="#FFDA00"/>
<path d="M10 11.6365H14" stroke="#FFDA00" stroke-width="2" stroke-miterlimit="10" stroke-linecap="round" stroke-linejoin="round"/>
<path d="M10 14.6365H14" stroke="#FFDA00" stroke-width="2" stroke-miterlimit="10" stroke-linecap="round" stroke-linejoin="round"/>
</svg>
