<svg width="24" height="25" viewBox="0 0 24 25" fill="none" xmlns="http://www.w3.org/2000/svg">
<path d="M23.2857 23.6727H22.4286C21.5193 23.6727 20.6472 23.3115 20.0042 22.6685C19.3612 22.0255 19 21.1535 19 20.2441C19 21.1535 18.6388 22.0255 17.9958 22.6685C17.3528 23.3115 16.4807 23.6727 15.5714 23.6727C14.6621 23.6727 13.79 23.3115 13.1471 22.6685C12.5041 22.0255 12.1429 21.1535 12.1429 20.2441C12.1429 21.1535 11.7816 22.0255 11.1387 22.6685C10.4957 23.3115 9.6236 23.6727 8.71429 23.6727C7.80497 23.6727 6.9329 23.3115 6.28992 22.6685C5.64694 22.0255 5.28571 21.1535 5.28571 20.2441C5.28571 21.1535 4.92449 22.0255 4.28151 22.6685C3.63853 23.3115 2.76646 23.6727 1.85714 23.6727H1" stroke="#0051D3" stroke-width="1.5" stroke-linecap="round" stroke-linejoin="round"/>
<path d="M11.2856 13.4729C11.3885 9.59859 12.5714 6.06716 15.1428 4.79858" stroke="#FFDA00" stroke-width="1.5" stroke-linecap="round" stroke-linejoin="round"/>
<path d="M17.2857 16.8157C16.4028 15.7423 15.2931 14.8778 14.0363 14.2842C12.7796 13.6906 11.407 13.3828 10.0171 13.3828C8.62724 13.3828 7.25463 13.6906 5.99787 14.2842C4.74112 14.8778 3.63144 15.7423 2.74854 16.8157" fill="#0051D3"/>
<path d="M17.2857 16.8157C16.4028 15.7423 15.2931 14.8778 14.0363 14.2842C12.7796 13.6906 11.407 13.3828 10.0171 13.3828C8.62724 13.3828 7.25463 13.6906 5.99787 14.2842C4.74112 14.8778 3.63144 15.7423 2.74854 16.8157" stroke="#0051D3" stroke-width="1.5" stroke-linecap="round" stroke-linejoin="round"/>
<path d="M10.0171 1.54135C11.1283 1.32253 12.2812 1.53837 13.238 2.14437C14.1949 2.75036 14.8828 3.70034 15.1599 4.79849" stroke="#0051D3" stroke-width="1.5" stroke-linecap="round" stroke-linejoin="round"/>
<path d="M21.4174 5.43278C20.6283 4.58082 19.5554 4.04624 18.4001 3.92945C17.2448 3.81266 16.0866 4.12169 15.1431 4.79849" stroke="#0051D3" stroke-width="1.5" stroke-linecap="round" stroke-linejoin="round"/>
<path d="M8.85156 6.63274C9.52331 5.64309 10.519 4.91853 11.6673 4.58374C12.8156 4.24895 14.0446 4.32488 15.143 4.79845C16.2447 5.06789 17.1986 5.75498 17.8031 6.7146C18.4077 7.67422 18.6156 8.83124 18.383 9.94131" stroke="#0051D3" stroke-width="1.5" stroke-linecap="round" stroke-linejoin="round"/>
</svg>
