<svg width="24" height="24" viewBox="0 0 24 24" fill="none" xmlns="http://www.w3.org/2000/svg">
<path opacity="0.4" d="M16.18 2H7.81C4.17 2 2 4.17 2 7.81V16.18C2 19.82 4.17 21.99 7.81 21.99H16.18C19.82 21.99 21.99 19.82 21.99 16.18V7.81C21.99 4.17 19.82 2 16.18 2Z" fill="#0051D3"/>
<path d="M18.25 14.9951V15.4951H18.75H19C19.1339 15.4951 19.25 15.6113 19.25 15.7451C19.25 15.879 19.1339 15.9951 19 15.9951H18H15.16H14.7649L14.6735 16.3795C14.3856 17.5903 13.2921 18.4951 12 18.4951C10.7079 18.4951 9.61436 17.5903 9.32647 16.3795L9.23508 15.9951H8.84003H6H5C4.86614 15.9951 4.75 15.879 4.75 15.7451C4.75 15.6113 4.86614 15.4951 5 15.4951H5.25H5.75V14.9951V14.4951V13.9951V10.9951V7.74512C5.75 6.50126 6.75614 5.49512 8 5.49512H16C17.2439 5.49512 18.25 6.50126 18.25 7.74512V10.9951V13.9951V14.4951V14.9951ZM16.6319 12.3495L16.6318 12.3496L16.6429 12.353C16.7896 12.3981 16.8554 12.4215 16.8928 12.4439L16.9398 12.4721L16.9918 12.4894C16.9925 12.4897 16.9953 12.4908 17.0041 12.4943L17.0059 12.495C17.0184 12.5 17.0426 12.5097 17.0719 12.5195L17.73 12.7388V12.0451V10.9951C17.73 10.029 16.9461 9.24512 15.98 9.24512H7.97998C7.01384 9.24512 6.22998 10.029 6.22998 10.9951V12.0451V12.8541L6.94081 12.4987L6.94879 12.4959L6.96811 12.4895L7.00182 12.4782L7.0336 12.4623C7.10952 12.4244 7.19811 12.3958 7.33293 12.3543C7.36144 12.346 7.38669 12.3374 7.40695 12.3303C7.41927 12.3259 7.43642 12.3197 7.44787 12.3155C7.45238 12.3139 7.45601 12.3126 7.4581 12.3118C7.46605 12.309 7.47135 12.3072 7.47447 12.3061L7.47806 12.3054C7.66357 12.2683 7.82712 12.2451 7.98999 12.2451H15.99C16.1469 12.2451 16.3044 12.2666 16.4816 12.3014C16.5321 12.3162 16.5779 12.3315 16.6319 12.3495ZM17.0264 9.00233L17.75 9.36413V8.55511V7.74512C17.75 6.77897 16.9661 5.99512 16 5.99512H8C7.03386 5.99512 6.25 6.77897 6.25 7.74512V8.55511V9.36413L6.97361 9.00233C7.29707 8.8406 7.64086 8.74512 8 8.74512H16C16.3591 8.74512 16.7029 8.8406 17.0264 9.00233ZM6.25 14.9951V15.4951H6.75H9.5C9.63386 15.4951 9.75 15.6113 9.75 15.7451C9.75 16.9813 10.7639 17.9951 12 17.9951C13.2361 17.9951 14.25 16.9813 14.25 15.7451C14.25 15.6113 14.3661 15.4951 14.5 15.4951H17.25H17.75V14.9951V14.4951C17.75 13.529 16.9661 12.7451 16 12.7451H8C7.03386 12.7451 6.25 13.529 6.25 14.4951V14.9951Z" stroke="#0051D3"/>
</svg>
