<svg width="24" height="25" viewBox="0 0 24 25" fill="none" xmlns="http://www.w3.org/2000/svg">
<path opacity="0.4" fill-rule="evenodd" clip-rule="evenodd" d="M1.00001 6.49365C0.692074 6.49365 0.401311 6.63552 0.211804 6.87824C0.0222965 7.12096 -0.0448187 7.43745 0.0298665 7.73619L1.8405 14.9787C2.06308 15.8691 2.86305 16.4937 3.78079 16.4937L8.48347 16.4937L6.08086 22.0997C5.94845 22.4087 5.98012 22.7635 6.16517 23.0441C6.35021 23.3248 6.66387 23.4937 7.00001 23.4937H9.25904C10.6945 23.4937 12.0198 22.7245 12.732 21.4782L15.5803 16.4937H19.75C20.9927 16.4937 22 15.4863 22 14.2437C22 11.6203 19.8734 9.49365 17.25 9.49365H6.53519L5.72266 8.27485C4.9808 7.16206 3.73187 6.49365 2.39446 6.49365H1.00001Z" fill="#0051D3"/>
<path fill-rule="evenodd" clip-rule="evenodd" d="M7 1.49365C6.66818 1.49365 6.35797 1.65825 6.17194 1.93302C5.98591 2.2078 5.94829 2.55695 6.07153 2.86504L8.07153 7.86504C8.22339 8.2447 8.5911 8.49365 9 8.49365H14C14.3603 8.49365 14.6927 8.29986 14.8702 7.98635C15.0477 7.67284 15.0429 7.28809 14.8575 6.97916L12.7314 3.43567C12.0085 2.23085 10.7065 1.49365 9.30143 1.49365H7Z" fill="#0051D3"/>
<g clip-path="url(#clip0_1273_1911)">
<path d="M19 11.4937C20.6569 11.4937 22 10.1505 22 8.49365C22 6.8368 20.6569 5.49365 19 5.49365C17.3431 5.49365 16 6.8368 16 8.49365C16 10.1505 17.3431 11.4937 19 11.4937Z" fill="#0051D3" stroke="#0051D3" stroke-linecap="round" stroke-linejoin="round"/>
<path d="M17.4998 7.49365C17.4998 6.69365 18.3331 6.99365 18.4998 6.99365C19.4998 6.49365 18.4998 5.49365 17.9998 5.49365C17.4998 5.49365 16.4998 5.99365 15.9998 7.49365C15.1998 9.49365 16.6665 9.16032 17.4998 8.99365C17.6665 8.82699 17.4998 8.29365 17.4998 7.49365Z" fill="#09AC00"/>
<path d="M20.8749 8.81762C20.8749 9.61762 21.4998 9.16032 21.9998 8.99365C21.4998 10.9937 20.9998 10.9937 19.9998 11.4937C18.9998 11.9937 19.4998 11.4937 18.9998 11.4937C18.4998 11.4937 18.9998 10.4937 19.9998 10.4937C20.9998 10.4937 19.8749 10.2437 19.8749 9.81762C19.8749 9.11051 20.8749 7.81762 20.8749 8.81762Z" fill="#09AC00"/>
<path d="M21.4998 6.99365C21.0998 6.59365 20.4998 6.16032 20.4998 5.99365C21.2998 5.99365 21.8331 6.99365 21.9998 7.49365L21.4998 6.99365Z" fill="#09AC00"/>
<path d="M17.4998 7.49365C17.4998 6.69365 18.3331 6.99365 18.4998 6.99365C19.4998 6.49365 18.4998 5.49365 17.9998 5.49365C17.4998 5.49365 16.4998 5.99365 15.9998 7.49365C15.1998 9.49365 16.6665 9.16032 17.4998 8.99365C17.6665 8.82699 17.4998 8.29365 17.4998 7.49365Z" stroke="#09AC00" stroke-width="0.5"/>
<path d="M20.8749 8.81762C20.8749 9.61762 21.4998 9.16032 21.9998 8.99365C21.4998 10.9937 20.9998 10.9937 19.9998 11.4937C18.9998 11.9937 19.4998 11.4937 18.9998 11.4937C18.4998 11.4937 18.9998 10.4937 19.9998 10.4937C20.9998 10.4937 19.8749 10.2437 19.8749 9.81762C19.8749 9.11051 20.8749 7.81762 20.8749 8.81762Z" stroke="#09AC00" stroke-width="0.5"/>
<path d="M21.4998 6.99365C21.0998 6.59365 20.4998 6.16032 20.4998 5.99365C21.2998 5.99365 21.8331 6.99365 21.9998 7.49365L21.4998 6.99365Z" stroke="#09AC00" stroke-width="0.5"/>
</g>
<defs>
<clipPath id="clip0_1273_1911">
<rect width="8" height="8" fill="white" transform="translate(15 4.49365)"/>
</clipPath>
</defs>
</svg>
