<svg width="24" height="28" viewBox="0 0 24 28" fill="none" xmlns="http://www.w3.org/2000/svg">
<path d="M5.75 20.4585L4.82692 22.4585M2.75 26.9585L3.78846 24.7085M17.75 20.4585L18.8269 22.4585M21.25 26.9585L20.0385 24.7085M4.82692 22.4585H18.8269M4.82692 22.4585L3.78846 24.7085M18.8269 22.4585L20.0385 24.7085M3.78846 24.7085H20.0385" stroke="#B5B5B5" stroke-linejoin="round"/>
<path d="M16.0835 19.5974H7.91683C6.50017 19.5974 5.3335 18.3184 5.3335 16.7449V4.04702C5.3335 2.48278 6.49183 1.19458 7.91683 1.19458H16.0835C17.5002 1.19458 18.6668 2.47358 18.6668 4.04702V16.7449C18.6668 18.3184 17.5085 19.5974 16.0835 19.5974Z" fill="#0051D3" stroke="#0051D3" stroke-width="1.66667" stroke-linecap="round" stroke-linejoin="round"/>
<path d="M17.4168 11.3163H6.5835C5.89183 11.3163 5.3335 10.6998 5.3335 9.93606V8.09578C5.3335 7.33207 5.89183 6.71558 6.5835 6.71558H17.4168C18.1085 6.71558 18.6668 7.33207 18.6668 8.09578V9.93606C18.6668 10.6998 18.1085 11.3163 17.4168 11.3163Z" fill="#ABC6F0" stroke="#ABC6F0" stroke-width="1.66667" stroke-linecap="round"/>
<path d="M9.07859 15.6407H9.08608" stroke="#FFDA00" stroke-width="1.66667" stroke-linecap="round" stroke-linejoin="round"/>
<path d="M14.9121 15.6407H14.9196" stroke="#FFDA00" stroke-width="1.66667" stroke-linecap="round" stroke-linejoin="round"/>
<path d="M9.9165 3.95508H14.0832" stroke="#FFDA00" stroke-width="1.66667" stroke-linecap="round" stroke-linejoin="round"/>
</svg>
