<svg width="24" height="24" viewBox="0 0 24 24" fill="none" xmlns="http://www.w3.org/2000/svg">
<path opacity="0.4" d="M6.73 19.6902C7.55 18.8102 8.8 18.8802 9.52 19.8402L10.53 21.1902C11.34 22.2602 12.65 22.2602 13.46 21.1902L14.47 19.8402C15.19 18.8802 16.44 18.8102 17.26 19.6902C19.04 21.5902 20.49 20.9602 20.49 18.3002V7.03023C20.5 3.00023 19.56 1.99023 15.78 1.99023H8.22C4.44 1.99023 3.5 3.00023 3.5 7.03023V18.2902C3.5 20.9602 4.96 21.5802 6.73 19.6902Z" fill="#0051D3"/>
<path d="M16.23 11.7402H10.73C10.32 11.7402 9.97998 11.4002 9.97998 10.9902C9.97998 10.5802 10.32 10.2402 10.73 10.2402H16.23C16.64 10.2402 16.98 10.5802 16.98 10.9902C16.98 11.4002 16.64 11.7402 16.23 11.7402Z" fill="#FFDA00"/>
<path d="M16.23 7.74023H10.73C10.32 7.74023 9.97998 7.40023 9.97998 6.99023C9.97998 6.58023 10.32 6.24023 10.73 6.24023H16.23C16.64 6.24023 16.98 6.58023 16.98 6.99023C16.98 7.40023 16.64 7.74023 16.23 7.74023Z" fill="#FFDA00"/>
<path d="M7.77979 7.99023C7.22979 7.99023 6.77979 7.54023 6.77979 6.99023C6.77979 6.44023 7.22979 5.99023 7.77979 5.99023C8.32979 5.99023 8.77978 6.44023 8.77978 6.99023C8.77978 7.54023 8.32979 7.99023 7.77979 7.99023Z" fill="#FFDA00"/>
<path d="M7.77979 11.9902C7.22979 11.9902 6.77979 11.5402 6.77979 10.9902C6.77979 10.4402 7.22979 9.99023 7.77979 9.99023C8.32979 9.99023 8.77978 10.4402 8.77978 10.9902C8.77978 11.5402 8.32979 11.9902 7.77979 11.9902Z" fill="#FFDA00"/>
</svg>
