<svg width="23" height="23" viewBox="0 0 23 23" fill="none" xmlns="http://www.w3.org/2000/svg">
<path opacity="0.4" fill-rule="evenodd" clip-rule="evenodd" d="M1.00001 5.49365C0.692074 5.49365 0.401311 5.63552 0.211804 5.87824C0.0222965 6.12096 -0.0448187 6.43745 0.0298665 6.73619L1.8405 13.9787C2.06308 14.8691 2.86305 15.4937 3.78079 15.4937L8.48347 15.4937L6.08086 21.0997C5.94845 21.4087 5.98012 21.7635 6.16517 22.0441C6.35021 22.3248 6.66387 22.4937 7.00001 22.4937H9.25904C10.6945 22.4937 12.0198 21.7245 12.732 20.4782L15.5803 15.4937H19.75C20.9927 15.4937 22 14.4863 22 13.2437C22 10.6203 19.8734 8.49365 17.25 8.49365H6.53519L5.72266 7.27485C4.9808 6.16206 3.73187 5.49365 2.39446 5.49365H1.00001Z" fill="#0051D3"/>
<path fill-rule="evenodd" clip-rule="evenodd" d="M7 0.493652C6.66818 0.493652 6.35797 0.658251 6.17194 0.933023C5.98591 1.2078 5.94829 1.55695 6.07153 1.86504L8.07153 6.86504C8.22339 7.2447 8.5911 7.49365 9 7.49365H14C14.3603 7.49365 14.6927 7.29986 14.8702 6.98635C15.0477 6.67284 15.0429 6.28809 14.8575 5.97916L12.7314 2.43567C12.0085 1.23085 10.7065 0.493652 9.30143 0.493652H7Z" fill="#0051D3"/>
<path d="M22 5.49365C21.219 6.66523 18.781 9.82208 18 10.9937L14.5 8.49365" stroke="#FF0000" stroke-width="2" stroke-linejoin="round"/>
</svg>
