<svg width="24" height="24" viewBox="0 0 24 24" fill="none" xmlns="http://www.w3.org/2000/svg">
<path d="M1 13.444L12.1429 1.49365L23.2857 13.444" fill="#0051D3"/>
<path d="M1 13.444L12.1429 1.49365L23.2857 13.444" stroke="#0051D3" stroke-width="1.5" stroke-linecap="round" stroke-linejoin="round"/>
<path d="M4.42871 9.76685V22.6364H19.8573V9.76685" fill="#0051D3"/>
<path d="M4.42871 9.76685V22.6364H19.8573V9.76685" stroke="#0051D3" stroke-width="1.5" stroke-linecap="round" stroke-linejoin="round"/>
<path d="M12.1431 22.6366V17.1211" stroke="#FFDA00" stroke-width="1.5" stroke-linecap="round" stroke-linejoin="round"/>
<path d="M12.1429 12.5247C13.3263 12.5247 14.2857 11.4958 14.2857 10.2266C14.2857 8.95738 13.3263 7.92847 12.1429 7.92847C10.9594 7.92847 10 8.95738 10 10.2266C10 11.4958 10.9594 12.5247 12.1429 12.5247Z" fill="#FFDA00" stroke="#FFDA00" stroke-width="1.5" stroke-linecap="round" stroke-linejoin="round"/>
<path d="M23.1431 1.49365C22.2058 2.77173 19.2803 6.21557 18.3431 7.49365L14.1431 4.76638" stroke="#FF0000" stroke-width="2" stroke-linejoin="round"/>
</svg>
