<svg width="24" height="24" viewBox="0 0 24 24" fill="none" xmlns="http://www.w3.org/2000/svg">
<g clip-path="url(#clip0_1273_1832)">
<path d="M2.57115 23.1428L21.4283 23.1428C22.3751 23.1428 23.1426 22.3753 23.1426 21.4285L23.1426 2.57139C23.1426 1.62462 22.3751 0.857107 21.4283 0.857107L2.57115 0.857107C1.62438 0.857107 0.856863 1.62462 0.856863 2.57139L0.856863 21.4285C0.856863 22.3753 1.62438 23.1428 2.57115 23.1428Z" stroke="#000001" stroke-width="1.5" stroke-linecap="round" stroke-linejoin="round"/>
<path d="M17.1426 11.1429C17.1426 12.5069 16.6008 13.815 15.6363 14.7795C14.6719 15.744 13.3638 16.2858 11.9998 16.2858C10.6358 16.2858 9.32772 15.744 8.36324 14.7795C7.39877 13.815 6.85694 12.5069 6.85694 11.1429V7.38864C6.85664 7.24298 6.89348 7.09964 6.96397 6.97216C7.03445 6.84469 7.13627 6.73728 7.25979 6.66007C7.38332 6.58287 7.52448 6.53842 7.66995 6.53092C7.81543 6.52342 7.96041 6.55312 8.09122 6.61722L11.9998 8.5715L15.9084 6.61722C16.0392 6.55312 16.1842 6.52342 16.3296 6.53092C16.4751 6.53842 16.6163 6.58287 16.7398 6.66007C16.8633 6.73728 16.9651 6.84469 17.0356 6.97216C17.1061 7.09964 17.1429 7.24298 17.1426 7.38864V11.1429Z" stroke="#000001" stroke-width="1.5" stroke-linecap="round" stroke-linejoin="round"/>
<path d="M12 16.2856V23.1428" stroke="#000001" stroke-width="1.5" stroke-linecap="round" stroke-linejoin="round"/>
<path d="M12 23.1429L16.2857 18.8572" stroke="#000001" stroke-width="1.5" stroke-linecap="round" stroke-linejoin="round"/>
<path d="M11.9996 23.1429L7.71387 18.8572" stroke="#000001" stroke-width="1.5" stroke-linecap="round" stroke-linejoin="round"/>
</g>
<defs>
<clipPath id="clip0_1273_1832">
<rect width="24" height="24" fill="white"/>
</clipPath>
</defs>
</svg>
