<svg width="24" height="24" viewBox="0 0 24 24" fill="none" xmlns="http://www.w3.org/2000/svg">
<path d="M20.5412 12H17.8988C17.582 12 17.3193 11.6762 17.3193 11.2857V4.62857C17.3193 3.92381 17.5434 3.26667 17.9452 2.77143C18.3469 2.27619 18.88 2 19.4518 2H19.9998C20.9656 2.00952 21.4465 2.15238 22.1418 3C22.8372 3.86667 23.1063 5.33333 23.1063 6.52381V8.82857C23.114 10.7238 22.0787 12 20.5412 12ZM18.4783 10.5714H20.5412C21.4374 10.5714 21.9551 9.93333 21.9551 8.82857V6.52381C21.9551 5.70476 21.6924 4.92381 21.2211 4.33333C20.7498 3.76191 20.1162 3.4381 19.4595 3.42857C19.4595 3.42857 19.4595 3.42857 19.4518 3.42857C19.1968 3.42857 18.9496 3.55238 18.7641 3.78095C18.5787 4.00952 18.4783 4.30476 18.4783 4.62857V10.5714Z" fill="#171717"/>
<path d="M10.4034 23C9.89314 23 9.41543 22.8288 9.05714 22.5054L7.25485 20.9171C7.15714 20.8315 7.00514 20.822 6.89657 20.8981L5.04 22.1155C4.46457 22.4959 3.70457 22.5625 3.05314 22.2772C2.40172 21.9918 2 21.4212 2 20.784V6.51766C2 3.64538 3.87829 2 7.15714 2H20.1857C20.6309 2 21 2.32337 21 2.71332C21 3.10326 20.6309 3.42663 20.1857 3.42663C19.4366 3.42663 18.8286 3.95924 18.8286 4.61549V20.784C18.8286 21.4212 18.4269 21.9918 17.7754 22.2772C17.124 22.5625 16.364 22.5054 15.7886 22.125L13.932 20.9076C13.8234 20.8315 13.6714 20.8505 13.5846 20.9266L11.7606 22.5245C11.3914 22.8288 10.9137 23 10.4034 23ZM7.04857 19.4239C7.548 19.4239 8.03657 19.5856 8.40572 19.9185L10.208 21.5068C10.2731 21.5639 10.36 21.5734 10.4034 21.5734C10.3926 21.5543 10.5337 21.5639 10.5989 21.5068L12.4229 19.909C13.096 19.3193 14.16 19.2622 14.9091 19.7663L16.7549 20.9742C16.8743 21.0503 16.9829 21.0217 17.0371 20.9932C17.0914 20.9647 17.1891 20.9076 17.1891 20.784V4.61549C17.1891 4.1875 17.3086 3.77853 17.5149 3.42663H7.14628C4.736 3.42663 3.61771 4.40625 3.61771 6.51766V20.784C3.61771 20.9171 3.71543 20.9742 3.76971 21.0027C3.83485 21.0313 3.94343 21.0503 4.052 20.9742L5.90857 19.7568C6.24514 19.538 6.64686 19.4239 7.04857 19.4239Z" fill="#171717"/>
<path d="M14.3113 10.5H6.11735C5.50653 10.5 5 10.16 5 9.75C5 9.34 5.50653 9 6.11735 9H14.3113C14.9221 9 15.4286 9.34 15.4286 9.75C15.4286 10.16 14.9221 10.5 14.3113 10.5Z" fill="#171717"/>
<path d="M14.3113 13.25H6.11735C5.50653 13.25 5 12.91 5 12.5C5 12.09 5.50653 11.75 6.11735 11.75H14.3113C14.9221 11.75 15.4286 12.09 15.4286 12.5C15.4286 12.91 14.9221 13.25 14.3113 13.25Z" fill="#171717"/>
<path d="M14.3113 16H6.11735C5.50653 16 5 15.66 5 15.25C5 14.84 5.50653 14.5 6.11735 14.5H14.3113C14.9221 14.5 15.4286 14.84 15.4286 15.25C15.4286 15.66 14.9221 16 14.3113 16Z" fill="#171717"/>
</svg>
