<svg width="24" height="24" viewBox="0 0 24 24" fill="none" xmlns="http://www.w3.org/2000/svg">
<g clip-path="url(#clip0_1273_1808)">
<path d="M23.1426 23.1085H22.2855C21.3762 23.1085 20.5041 22.7473 19.8611 22.1043C19.2182 21.4613 18.8569 20.5892 18.8569 19.6799C18.8569 20.5892 18.4957 21.4613 17.8527 22.1043C17.2097 22.7473 16.3377 23.1085 15.4284 23.1085C14.519 23.1085 13.647 22.7473 13.004 22.1043C12.361 21.4613 11.9998 20.5892 11.9998 19.6799C11.9998 20.5892 11.6386 21.4613 10.9956 22.1043C10.3526 22.7473 9.48053 23.1085 8.57122 23.1085C7.66191 23.1085 6.78983 22.7473 6.14685 22.1043C5.50387 21.4613 5.14265 20.5892 5.14265 19.6799C5.14265 20.5892 4.78142 21.4613 4.13844 22.1043C3.49546 22.7473 2.62339 23.1085 1.71408 23.1085H0.856934" stroke="#000001" stroke-width="1.5" stroke-linecap="round" stroke-linejoin="round"/>
<path d="M17.1426 16.2515C16.2597 15.1781 15.15 14.3135 13.8933 13.72C12.6365 13.1264 11.2639 12.8186 9.87404 12.8186C8.48417 12.8186 7.11156 13.1264 5.85481 13.72C4.59806 14.3135 3.48837 15.1781 2.60547 16.2515" stroke="#000001" stroke-width="1.5" stroke-linecap="round" stroke-linejoin="round"/>
<path d="M11.1426 12.9087C11.2454 9.03438 12.4283 5.50295 14.9997 4.23438" stroke="#000001" stroke-width="1.5" stroke-linecap="round" stroke-linejoin="round"/>
<path d="M9.87402 0.977141C10.9853 0.758326 12.1381 0.97416 13.095 1.58016C14.0518 2.18615 14.7397 3.13613 15.0169 4.23428" stroke="#000001" stroke-width="1.5" stroke-linecap="round" stroke-linejoin="round"/>
<path d="M21.2743 4.86857C20.4853 4.01661 19.4124 3.48203 18.2571 3.36524C17.1018 3.24845 15.9436 3.55748 15 4.23428" stroke="#000001" stroke-width="1.5" stroke-linecap="round" stroke-linejoin="round"/>
<path d="M8.7085 6.06853C9.38024 5.07888 10.3759 4.35432 11.5242 4.01953C12.6725 3.68474 13.9016 3.76067 14.9999 4.23424C16.1016 4.50369 17.0555 5.19077 17.6601 6.15039C18.2646 7.11001 18.4725 8.26703 18.2399 9.3771" stroke="#000001" stroke-width="1.5" stroke-linecap="round" stroke-linejoin="round"/>
</g>
<defs>
<clipPath id="clip0_1273_1808">
<rect width="24" height="24" fill="white"/>
</clipPath>
</defs>
</svg>
