<svg width="24" height="24" viewBox="0 0 24 24" fill="none" xmlns="http://www.w3.org/2000/svg">
<path opacity="0.4" d="M7.81 2.50488H16.18C17.9006 2.50488 19.2138 3.01581 20.0964 3.89843C20.9791 4.78106 21.49 6.09432 21.49 7.81488V16.1849C21.49 17.9054 20.9791 19.2187 20.0964 20.1013C19.2138 20.984 17.9006 21.4949 16.18 21.4949H7.81C6.08943 21.4949 4.77618 20.984 3.89355 20.1013C3.01093 19.2187 2.5 17.9054 2.5 16.1849V7.81488C2.5 6.09432 3.01093 4.78106 3.89355 3.89843C4.77618 3.01581 6.08943 2.50488 7.81 2.50488Z" stroke="#111111"/>
<path d="M18.25 15V15.5H18.75H19C19.1339 15.5 19.25 15.6161 19.25 15.75C19.25 15.8839 19.1339 16 19 16H18H15.16H14.7649L14.6735 16.3843C14.3856 17.5952 13.2921 18.5 12 18.5C10.7079 18.5 9.61436 17.5952 9.32647 16.3843L9.23508 16H8.84003H6H5C4.86614 16 4.75 15.8839 4.75 15.75C4.75 15.6161 4.86614 15.5 5 15.5H5.25H5.75V15V14.5V14V11V7.75C5.75 6.50614 6.75614 5.5 8 5.5H16C17.2439 5.5 18.25 6.50614 18.25 7.75V11V14V14.5V15ZM16.6319 12.3543L16.6318 12.3545L16.6429 12.3579C16.7896 12.403 16.8554 12.4263 16.8928 12.4487L16.9398 12.477L16.9918 12.4943C16.9925 12.4946 16.9953 12.4956 17.0041 12.4992L17.0059 12.4999C17.0184 12.5049 17.0426 12.5146 17.0719 12.5243L17.73 12.7437V12.05V11C17.73 10.0339 16.9461 9.25 15.98 9.25H7.97998C7.01384 9.25 6.22998 10.0339 6.22998 11V12.05V12.859L6.94081 12.5036L6.94879 12.5008L6.96811 12.4943L7.00182 12.4831L7.0336 12.4672C7.10952 12.4293 7.19811 12.4007 7.33293 12.3592C7.36144 12.3509 7.38669 12.3423 7.40695 12.3352C7.41927 12.3308 7.43642 12.3246 7.44787 12.3204C7.45238 12.3188 7.45601 12.3174 7.4581 12.3167C7.46605 12.3138 7.47135 12.312 7.47447 12.311L7.47806 12.3103C7.66357 12.2732 7.82712 12.25 7.98999 12.25H15.99C16.1469 12.25 16.3044 12.2715 16.4816 12.3063C16.5321 12.3211 16.5779 12.3364 16.6319 12.3543ZM17.0264 9.00721L17.75 9.36901V8.56V7.75C17.75 6.78386 16.9661 6 16 6H8C7.03386 6 6.25 6.78386 6.25 7.75V8.56V9.36901L6.97361 9.00721C7.29707 8.84548 7.64086 8.75 8 8.75H16C16.3591 8.75 16.7029 8.84548 17.0264 9.00721ZM6.25 15V15.5H6.75H9.5C9.63386 15.5 9.75 15.6161 9.75 15.75C9.75 16.9861 10.7639 18 12 18C13.2361 18 14.25 16.9861 14.25 15.75C14.25 15.6161 14.3661 15.5 14.5 15.5H17.25H17.75V15V14.5C17.75 13.5339 16.9661 12.75 16 12.75H8C7.03386 12.75 6.25 13.5339 6.25 14.5V15Z" stroke="#111111"/>
</svg>
