<svg width="24" height="24" viewBox="0 0 24 24" fill="none" xmlns="http://www.w3.org/2000/svg">
<rect width="24" height="24" fill="#DADADA"/>
<g id="&#237;&#131;&#173; &#236;&#149;&#132;&#236;&#157;&#180;&#236;&#189;&#152;">
<path d="M-238 -377C-238 -378.105 -237.105 -379 -236 -379H765C766.105 -379 767 -378.105 767 -377V1152C767 1153.1 766.105 1154 765 1154H-236C-237.105 1154 -238 1153.1 -238 1152V-377Z" fill="#C4C4C4"/>
<g id="&#234;&#178;&#128;&#236;&#157;&#128;&#236;&#149;&#132;&#236;&#157;&#180;&#236;&#189;&#152;">
<g id="ic_&#236;&#157;&#180;&#235;&#139;&#172;&#236;&#157;&#152;&#234;&#184;&#176;&#237;&#154;&#141;&#236;&#160;&#132;">
<g id="additem" clip-path="url(#clip0_448_916)">
<path id="Vector" d="M8 16H5.43C3.14 16 2 14.86 2 12.57V5.43C2 3.14 3.14 2 5.43 2H10C12.29 2 13.43 3.14 13.43 5.43" stroke="#171717" stroke-width="1.5" stroke-linecap="round" stroke-linejoin="round"/>
<path id="Vector_2" d="M18.5698 22H13.9998C11.7098 22 10.5698 20.86 10.5698 18.57V11.43C10.5698 9.14 11.7098 8 13.9998 8H18.5698C20.8598 8 21.9998 9.14 21.9998 11.43V18.57C21.9998 20.86 20.8598 22 18.5698 22Z" stroke="#171717" stroke-width="1.5" stroke-linecap="round" stroke-linejoin="round"/>
<path id="Star 2" d="M16.5 12L17.5698 13.7379L19.8287 14.0729L18.2309 15.4821L18.5572 17.4271L16.5 16.56L14.4428 17.4271L14.7691 15.4821L13.1713 14.0729L15.4302 13.7379L16.5 12Z" stroke="black" stroke-linecap="square"/>
</g>
</g>
</g>
</g>
<defs>
<clipPath id="clip0_448_916">
<rect width="24" height="24" fill="white"/>
</clipPath>
</defs>
</svg>
