<svg width="24" height="26" viewBox="0 0 24 26" fill="none" xmlns="http://www.w3.org/2000/svg">
<path d="M16.0835 18.3334H7.91683C6.50017 18.3334 5.3335 17.1751 5.3335 15.7501V4.25009C5.3335 2.83342 6.49183 1.66675 7.91683 1.66675H16.0835C17.5002 1.66675 18.6668 2.82509 18.6668 4.25009V15.7501C18.6668 17.1751 17.5085 18.3334 16.0835 18.3334Z" stroke="#111111" stroke-width="1.66667" stroke-linecap="round" stroke-linejoin="round"/>
<path d="M17.4168 10.8334H6.5835C5.89183 10.8334 5.3335 10.2751 5.3335 9.58341V7.91675C5.3335 7.22508 5.89183 6.66675 6.5835 6.66675H17.4168C18.1085 6.66675 18.6668 7.22508 18.6668 7.91675V9.58341C18.6668 10.2751 18.1085 10.8334 17.4168 10.8334Z" stroke="#111111" stroke-width="1.66667" stroke-linecap="round" stroke-linejoin="round"/>
<path d="M9.07859 14.7499H9.08608" stroke="#111111" stroke-width="1.66667" stroke-linecap="round" stroke-linejoin="round"/>
<path d="M14.9121 14.7499H14.9196" stroke="#111111" stroke-width="1.66667" stroke-linecap="round" stroke-linejoin="round"/>
<path d="M9.9165 4.16675H14.0832" stroke="#111111" stroke-width="1.66667" stroke-linecap="round" stroke-linejoin="round"/>
<path d="M6 18.5L5.07692 20.5M3 25L4.03846 22.75M18 18.5L19.0769 20.5M21.5 25L20.2885 22.75M5.07692 20.5H19.0769M5.07692 20.5L4.03846 22.75M19.0769 20.5L20.2885 22.75M4.03846 22.75H20.2885" stroke="black" stroke-linejoin="round"/>
</svg>
