<svg width="24" height="24" viewBox="0 0 24 24" fill="none" xmlns="http://www.w3.org/2000/svg">
<path fill-rule="evenodd" clip-rule="evenodd" d="M3.21894 16.3278L3 15.4426L4.75149 15L4.97042 15.8852C5.13994 16.5706 5.24744 19.2227 5.36711 19.5402C5.47813 19.8347 5.56369 19.929 5.63075 19.9819C5.69781 20.0348 5.809 20.0958 6.11865 20.1333C6.4524 20.1736 6.89692 20.1751 7.59588 20.1751H16.4006C17.0995 20.1751 17.5441 20.1736 17.8778 20.1333C18.1875 20.0958 18.2986 20.0348 18.3657 19.9819C18.4328 19.929 18.5183 19.8347 18.6293 19.5402C18.749 19.2227 18.8601 16.5706 19.0296 15.8852L19.2485 15L21 15.4426L20.7689 16.377C20.6152 16.9987 20.4791 19.7582 20.3165 20.1898C20.1409 20.6557 19.8994 21.0867 19.4768 21.4203C19.0541 21.7538 18.5819 21.886 18.0922 21.9452C17.6385 22.0001 17.0848 22 16.4508 22L7.59588 22C7.57908 22 7.56233 22 7.54564 22C6.91166 22 6.35799 22.0001 5.90429 21.9452C5.41452 21.886 4.94236 21.7538 4.51968 21.4203C4.09701 21.0867 3.8556 20.6557 3.68 20.1898C3.51733 19.7582 3.38485 16.9987 3.23112 16.377C3.22707 16.3607 3.22301 16.3442 3.21894 16.3278Z" fill="black"/>
<path fill-rule="evenodd" clip-rule="evenodd" d="M6.67544 8.87866L9.84702 5.70709C10.5337 5.02043 10.979 4.57808 11.35 4.295C11.698 4.02954 11.8607 3.99998 11.9683 3.99998C12.076 3.99998 12.2387 4.02954 12.5866 4.295C12.9576 4.57808 13.403 5.02043 14.0897 5.70709L17.2612 8.87866L18.6754 7.46445L15.4573 4.24633C14.8305 3.61945 14.2905 3.07932 13.7998 2.70496C13.274 2.30376 12.6891 1.99998 11.9683 1.99998C11.2476 1.99998 10.6627 2.30376 10.1369 2.70496C9.64622 3.07932 9.10616 3.61945 8.47935 4.24633C8.46389 4.26179 8.44837 4.27731 8.4328 4.29288L5.26123 7.46445L6.67544 8.87866Z" fill="black"/>
<path fill-rule="evenodd" clip-rule="evenodd" d="M10.9683 3.17163V17.1716H12.9683V3.17163H10.9683Z" fill="black"/>
</svg>
