<?xml version="1.0" encoding="utf-8"?>
<!-- Generator: Adobe Illustrator 27.0.0, SVG Export Plug-In . SVG Version: 6.00 Build 0)  -->
<svg version="1.1" id="Layer_1" xmlns="http://www.w3.org/2000/svg" xmlns:xlink="http://www.w3.org/1999/xlink" x="0px" y="0px"
	 viewBox="0 0 400 113" style="enable-background:new 0 0 400 113;" xml:space="preserve">
<style type="text/css">
	.st0{fill:#0051D3;}
	.st1{fill:#FFDA00;}
</style>
<g>
	<g>
		<g>
			<path class="st0" d="M0.1,0.9L0.1,0.9c0,12.6,6.4,24.3,16.9,31.1l39.9,26V37.8L0.1,0.9z"/>
			<polygon class="st0" points="0.1,28.5 0.1,48.8 0.1,56.3 0.1,76.4 20,89.5 56.7,113.2 56.7,93.1 20,69.3 20,61.8 56.7,85.5 
				56.7,65.5 20,41.7 			"/>
		</g>
		<polygon class="st1" points="64.1,37.9 64.1,58 100.7,34.3 100.7,41.8 64.1,65.6 64.1,85.8 100.7,61.9 120.8,48.8 120.8,28.7 
			120.8,21.2 120.8,11.1 120.8,1 		"/>
		<path class="st1" d="M119.1,67.6c-8.4-1-17,1-24.3,5.6l-6.6,4.2L64.1,93.2v9.9v10.1l33.3-21.6l32.7-21
			C126.6,69.1,123,68.1,119.1,67.6z"/>
	</g>
	<g>
		<path class="st0" d="M152.7,92.4c-2.1,0.8-3.2,0.1-3.2-2.1V43h-17.9V31.7h48.7V43h-17.9V89L152.7,92.4z"/>
		<path class="st0" d="M183.5,92.4c-2.1,0.7-3.2,0.1-3.2-2.1V47.2h11.6v3.3c2.9-2.5,6.7-4.1,11.2-4.1c1.6,0,3.6,0.2,5.4,0.5
			l-0.8,11.3c-1.7-0.3-3.4-0.5-4.8-0.5c-4.9,0-9.6,3-9.8,7.9v23.3L183.5,92.4z"/>
		<path class="st0" d="M211,41V27.8h13.8V41C224.9,41,211,41,211,41z M214.7,92.4c-2.1,0.7-3.2,0.1-3.2-2.1V48h12.8v41.1L214.7,92.4
			z"/>
		<path class="st0" d="M233.7,106.9c-2.1,0.7-3.2,0.1-3.2-2.1V47.2H242v3c2.7-2.3,6.2-3.7,10.5-3.7c10.4,0,19,5.7,19,19.3v7
			c0,13.6-8.6,19.3-19,19.3c-3.6,0-6.8-1.1-9.3-2.8v14.3L233.7,106.9z M258.8,65.4c0-5.1-3.3-7.5-7.8-7.5c-4.3,0-7.6,3-7.8,7.9v6.6
			c0,5.2,3.3,8.3,7.8,8.3s7.8-2.4,7.8-7.5V65.4z"/>
		<path class="st0" d="M277.6,54.6V40.9h13.7v13.7H277.6z M277.6,82V68.3h13.7v13.7L277.6,82L277.6,82z"/>
		<path class="st0" d="M325.8,91.2h-10.6c-8.1,0-11.7-3.9-11.7-11.5V59.2h-6.9V48h6.9v-9.4l9.6-3.3c2.1-0.7,3.2-0.1,3.2,2.1V48h9.3
			v11.3h-9.3v19c0,1.2,0.8,1.7,2.1,1.7h8.8L325.8,91.2z"/>
		<path class="st0" d="M348,92.7c-11.1,0-20.1-5.6-20.1-18.9v-8.4c0-13.4,9-18.9,20.1-18.9s20.1,5.5,20.1,18.9V74h-27.5v0.8
			c0,4.9,3.2,7.2,7.4,7.2c3.7,0,6.9-1.7,7.5-4.6l12.7,1C366.7,86.8,359.3,92.7,348,92.7z M340.6,63.9h14.8c0-4.3-3.2-6.8-7.4-6.8
			s-7.4,2.4-7.4,6.4L340.6,63.9L340.6,63.9z"/>
		<path class="st0" d="M375.1,92.4c-2.1,0.7-3.2,0.1-3.2-2.1V47.2h11.6v3.3c2.9-2.5,6.7-4.1,11.2-4.1c1.6,0,3.6,0.2,5.4,0.5
			l-0.8,11.3c-1.7-0.3-3.4-0.5-4.8-0.5c-4.9,0-9.6,3-9.8,7.9v23.3L375.1,92.4z"/>
	</g>
</g>
</svg>
