<?xml version="1.0" encoding="utf-8"?>
<!-- Generator: Adobe Illustrator 27.0.0, SVG Export Plug-In . SVG Version: 6.00 Build 0)  -->
<svg version="1.1" id="Layer_1" xmlns="http://www.w3.org/2000/svg" xmlns:xlink="http://www.w3.org/1999/xlink" x="0px" y="0px"
	 viewBox="0 0 400 113" style="enable-background:new 0 0 400 113;" xml:space="preserve">
<style type="text/css">
	.st0{fill:#0051D3;}
	.st1{enable-background:new    ;}
</style>
<g>
	<g>
		<g>
			<path class="st0" d="M0.05,0.86L0.05,0.86c0,12.65,6.37,24.33,16.9,31.09l39.88,25.97V37.84L0.05,0.86z"/>
			<polygon class="st0" points="0.05,28.47 0.05,48.75 0.05,56.28 0.05,76.37 20.04,89.5 56.73,113.25 56.73,93.07 20.04,69.32 
				20.04,61.79 56.73,85.54 56.73,65.46 20.04,41.7 			"/>
		</g>
		<polygon class="st0" points="64.07,37.87 64.07,58.05 100.66,34.3 100.66,41.83 64.07,65.59 64.07,85.77 100.66,61.92 
			120.84,48.79 120.84,28.7 120.84,21.17 120.84,11.13 120.84,0.99 		"/>
		<path class="st0" d="M119.1,67.61c-8.4-0.97-16.99,0.97-24.33,5.6l-6.57,4.25L64.07,93.2v9.95v10.14l33.31-21.63l32.73-21.05
			C126.64,69.06,122.97,68.1,119.1,67.61z"/>
	</g>
	<g class="st1">
		<path class="st0" d="M152.7,92.45c-2.13,0.76-3.2,0.08-3.2-2.06V42.96h-17.87V31.7h48.67v11.26h-17.87v46.08L152.7,92.45z"/>
		<path class="st0" d="M183.49,92.45c-2.06,0.69-3.2,0.08-3.2-2.06V47.22h11.56v3.34c2.89-2.51,6.69-4.1,11.18-4.1
			c1.59,0,3.65,0.23,5.4,0.53l-0.76,11.33c-1.67-0.3-3.42-0.45-4.79-0.45c-4.87,0-9.58,2.96-9.81,7.91v23.35L183.49,92.45z"/>
		<path class="st0" d="M211.02,40.98V27.75h13.84v13.23C224.85,40.98,211.02,40.98,211.02,40.98z M214.74,92.45
			c-2.06,0.69-3.2,0.08-3.2-2.06V47.97h12.77V89.1L214.74,92.45z"/>
		<path class="st0" d="M233.68,106.91c-2.06,0.69-3.2,0.08-3.2-2.06V47.22h11.56v2.96c2.73-2.28,6.24-3.73,10.5-3.73
			c10.42,0,19.01,5.71,19.01,19.31v7c0,13.61-8.59,19.31-19.01,19.31c-3.65,0-6.77-1.06-9.28-2.81v14.29L233.68,106.91z
			 M258.76,65.39c0-5.1-3.34-7.53-7.75-7.53c-4.34,0-7.61,2.96-7.75,7.91v6.61c0,5.17,3.34,8.28,7.75,8.28
			c4.41,0,7.75-2.43,7.75-7.53V65.39z"/>
		<path class="st0" d="M277.62,54.58V40.9h13.68v13.68H277.62z M277.62,81.96V68.27h13.68v13.68H277.62z"/>
		<path class="st0" d="M325.76,91.16h-10.57c-8.14,0-11.71-3.88-11.71-11.48V59.23h-6.85V47.97h6.85v-9.36l9.58-3.34
			c2.06-0.69,3.2-0.08,3.2,2.06v10.65h9.28v11.26h-9.28v19.01c0,1.22,0.84,1.67,2.06,1.67h8.75L325.76,91.16z"/>
		<path class="st0" d="M347.96,92.68c-11.1,0-20.15-5.55-20.15-18.93v-8.36c0-13.38,9.05-18.93,20.15-18.93
			c11.1,0,20.15,5.55,20.15,18.93v8.59h-27.53v0.84c0,4.87,3.2,7.15,7.38,7.15c3.73,0,6.85-1.67,7.45-4.63l12.7,0.98
			C366.67,86.82,359.29,92.68,347.96,92.68z M340.59,63.94h14.75c0-4.26-3.2-6.77-7.38-6.77c-4.18,0-7.38,2.43-7.38,6.38
			L340.59,63.94L340.59,63.94z"/>
		<path class="st0" d="M375.11,92.45c-2.06,0.69-3.2,0.08-3.2-2.06V47.22h11.56v3.34c2.89-2.51,6.69-4.1,11.18-4.1
			c1.59,0,3.65,0.23,5.4,0.53l-0.76,11.33c-1.67-0.3-3.42-0.45-4.79-0.45c-4.87,0-9.58,2.96-9.81,7.91v23.35L375.11,92.45z"/>
	</g>
</g>
</svg>
